M48
; DRILL file {KiCad 7.0.8} date Thu Dec  7 12:15:38 2023
; FORMAT={-:-/ absolute / metric / decimal}
; #@! TF.CreationDate,2023-12-07T12:15:38+09:00
; #@! TF.GenerationSoftware,Kicad,Pcbnew,7.0.8
; #@! TF.FileFunction,MixedPlating,1,2
FMAT,2
METRIC
; #@! TA.AperFunction,Plated,PTH,ViaDrill
T1C0.400
; #@! TA.AperFunction,Plated,PTH,ComponentDrill
T2C0.800
; #@! TA.AperFunction,Plated,PTH,ComponentDrill
T3C0.900
; #@! TA.AperFunction,Plated,PTH,ComponentDrill
T4C0.950
; #@! TA.AperFunction,Plated,PTH,ComponentDrill
T5C1.000
; #@! TA.AperFunction,Plated,PTH,ComponentDrill
T6C3.200
%
G90
G05
T1
X1.0Y60.0
X1.0Y50.0
X1.0Y40.0
X1.0Y30.0
X1.0Y20.0
X1.0Y10.0
X10.0Y69.0
X12.0Y54.0
X12.0Y36.0
X12.0Y25.0
X12.0Y15.0
X18.0Y57.0
X20.0Y69.0
X20.0Y36.0
X26.0Y46.0
X26.0Y39.0
X26.0Y22.0
X26.0Y13.0
X30.0Y69.0
X31.0Y57.0
X32.0Y18.0
X32.0Y12.0
X37.0Y55.5
X38.0Y17.0
X38.5Y48.0
X40.0Y69.0
X40.0Y1.0
X49.0Y31.0
X49.0Y9.0
X50.0Y69.0
X50.0Y52.0
X50.0Y1.0
X51.0Y12.0
X53.0Y31.0
X58.0Y42.0
X60.0Y69.0
X60.0Y1.0
X62.5Y53.0
X63.0Y16.0
X69.0Y60.0
X69.0Y45.0
X69.0Y33.0
X69.0Y9.0
T2
X15.0Y20.31
X15.0Y12.69
X22.0Y20.31
X22.0Y12.69
X28.75Y20.31
X28.75Y12.69
X42.375Y23.05
X42.375Y11.55
X47.375Y23.05
X47.375Y11.55
X58.0Y34.0
X58.0Y26.38
T3
X13.5Y5.54
X13.5Y3.0
X21.75Y5.5
X21.75Y2.96
T4
X55.0Y21.0
X55.0Y18.5
X55.0Y16.0
X55.0Y13.5
X65.0Y19.0
X65.0Y16.5
X65.0Y14.0
T5
X9.6Y59.7
X9.6Y57.16
X9.6Y54.62
X9.6Y52.08
X9.6Y49.54
X9.6Y47.0
X9.6Y44.46
X9.6Y41.92
X9.6Y39.38
X9.6Y36.84
X9.6Y34.3
X9.6Y31.76
X9.6Y29.22
X9.6Y26.68
X9.6Y24.14
X9.6Y21.6
X9.6Y19.06
X9.6Y16.52
X9.6Y13.98
X31.0Y8.75
X31.0Y2.25
X35.0Y59.7
X35.0Y57.16
X35.0Y54.62
X35.0Y52.08
X35.0Y49.54
X35.0Y47.0
X35.0Y44.46
X35.0Y41.92
X35.0Y39.38
X35.0Y36.84
X35.0Y34.3
X35.0Y31.76
X35.0Y29.22
X35.0Y26.68
X35.0Y24.14
X35.0Y21.6
X35.0Y19.06
X35.0Y16.52
X35.0Y13.98
X35.5Y8.75
X35.5Y2.25
X40.5Y4.0
X43.04Y4.0
X44.38Y42.16
X44.38Y39.62
X44.38Y37.08
X44.38Y34.54
X44.38Y32.0
X44.38Y29.46
X45.0Y57.5
X45.58Y4.0
X51.0Y42.16
X51.0Y39.62
X51.0Y37.08
X51.0Y34.54
X51.0Y32.0
X51.0Y29.46
X53.75Y5.0
X55.0Y57.5
X56.25Y5.0
X65.0Y52.0
X65.0Y49.5
X65.0Y40.5
X65.0Y38.0
X65.0Y29.0
X65.0Y26.5
T6
X4.0Y66.0
X4.0Y4.0
X66.0Y66.0
X66.0Y4.0
T0
M30
