G04 #@! TF.GenerationSoftware,KiCad,Pcbnew,7.0.8*
G04 #@! TF.CreationDate,2023-12-07T12:15:41+09:00*
G04 #@! TF.ProjectId,rat_board,7261745f-626f-4617-9264-2e6b69636164,rev?*
G04 #@! TF.SameCoordinates,PX632ea00PY8a48640*
G04 #@! TF.FileFunction,Soldermask,Bot*
G04 #@! TF.FilePolarity,Negative*
%FSLAX46Y46*%
G04 Gerber Fmt 4.6, Leading zero omitted, Abs format (unit mm)*
G04 Created by KiCad (PCBNEW 7.0.8) date 2023-12-07 12:15:41*
%MOMM*%
%LPD*%
G01*
G04 APERTURE LIST*
G04 Aperture macros list*
%AMRoundRect*
0 Rectangle with rounded corners*
0 $1 Rounding radius*
0 $2 $3 $4 $5 $6 $7 $8 $9 X,Y pos of 4 corners*
0 Add a 4 corners polygon primitive as box body*
4,1,4,$2,$3,$4,$5,$6,$7,$8,$9,$2,$3,0*
0 Add four circle primitives for the rounded corners*
1,1,$1+$1,$2,$3*
1,1,$1+$1,$4,$5*
1,1,$1+$1,$6,$7*
1,1,$1+$1,$8,$9*
0 Add four rect primitives between the rounded corners*
20,1,$1+$1,$2,$3,$4,$5,0*
20,1,$1+$1,$4,$5,$6,$7,0*
20,1,$1+$1,$6,$7,$8,$9,0*
20,1,$1+$1,$8,$9,$2,$3,0*%
G04 Aperture macros list end*
%ADD10C,1.700000*%
%ADD11C,1.600000*%
%ADD12O,1.600000X1.600000*%
%ADD13O,1.700000X1.700000*%
%ADD14RoundRect,0.250000X0.725000X-0.600000X0.725000X0.600000X-0.725000X0.600000X-0.725000X-0.600000X0*%
%ADD15O,1.950000X1.700000*%
%ADD16C,6.400000*%
%ADD17RoundRect,0.250000X0.750000X-0.600000X0.750000X0.600000X-0.750000X0.600000X-0.750000X-0.600000X0*%
%ADD18O,2.000000X1.700000*%
%ADD19RoundRect,0.425000X0.425000X-0.425000X0.425000X0.425000X-0.425000X0.425000X-0.425000X-0.425000X0*%
%ADD20RoundRect,0.425000X0.425000X0.425000X-0.425000X0.425000X-0.425000X-0.425000X0.425000X-0.425000X0*%
%ADD21R,1.800000X1.800000*%
%ADD22C,1.800000*%
%ADD23RoundRect,0.250000X-0.600000X-0.750000X0.600000X-0.750000X0.600000X0.750000X-0.600000X0.750000X0*%
%ADD24O,1.700000X2.000000*%
G04 APERTURE END LIST*
D10*
X45000000Y57500000D03*
X55000000Y57500000D03*
D11*
X58000000Y34000000D03*
D12*
X58000000Y26380000D03*
D10*
X9600000Y59700000D03*
D13*
X9600000Y57160000D03*
X9600000Y54620000D03*
X9600000Y52080000D03*
X9600000Y49540000D03*
X9600000Y47000000D03*
X9600000Y44460000D03*
X9600000Y41920000D03*
X9600000Y39380000D03*
X9600000Y36840000D03*
X9600000Y34300000D03*
X9600000Y31760000D03*
X9600000Y29220000D03*
X9600000Y26680000D03*
X9600000Y24140000D03*
X9600000Y21600000D03*
X9600000Y19060000D03*
X9600000Y16520000D03*
X9600000Y13980000D03*
X35000000Y13980000D03*
X35000000Y16520000D03*
X35000000Y19060000D03*
X35000000Y21600000D03*
X35000000Y24140000D03*
X35000000Y26680000D03*
X35000000Y29220000D03*
X35000000Y31760000D03*
X35000000Y34300000D03*
X35000000Y36840000D03*
X35000000Y39380000D03*
X35000000Y41920000D03*
X35000000Y44460000D03*
X35000000Y47000000D03*
X35000000Y49540000D03*
X35000000Y52080000D03*
X35000000Y54620000D03*
X35000000Y57160000D03*
X35000000Y59700000D03*
D14*
X55000000Y13500000D03*
D15*
X55000000Y16000000D03*
X55000000Y18500000D03*
X55000000Y21000000D03*
D16*
X4000000Y66000000D03*
D11*
X47375000Y23050000D03*
X42375000Y23050000D03*
D16*
X4000000Y4000000D03*
D17*
X65000000Y26500000D03*
D18*
X65000000Y29000000D03*
D11*
X15000000Y12690000D03*
D12*
X15000000Y20310000D03*
D17*
X65000000Y49500000D03*
D18*
X65000000Y52000000D03*
D19*
X31000000Y2250000D03*
D10*
X31000000Y8750000D03*
X35500000Y2250000D03*
X35500000Y8750000D03*
X51000000Y29460000D03*
X51000000Y32000000D03*
X51000000Y34540000D03*
X51000000Y37080000D03*
X51000000Y39620000D03*
X51000000Y42160000D03*
X44380000Y42160000D03*
X44380000Y39620000D03*
X44380000Y37080000D03*
X44380000Y34540000D03*
X44380000Y32000000D03*
X44380000Y29460000D03*
D20*
X45580000Y4000000D03*
D10*
X43040000Y4000000D03*
X40500000Y4000000D03*
D14*
X65000000Y14000000D03*
D15*
X65000000Y16500000D03*
X65000000Y19000000D03*
D11*
X22000000Y12690000D03*
D12*
X22000000Y20310000D03*
D21*
X21750000Y2960000D03*
D22*
X21750000Y5500000D03*
D11*
X28750000Y20310000D03*
D12*
X28750000Y12690000D03*
D16*
X66000000Y66000000D03*
X66000000Y4000000D03*
D17*
X65000000Y38000000D03*
D18*
X65000000Y40500000D03*
D23*
X53750000Y5000000D03*
D24*
X56250000Y5000000D03*
D21*
X13500000Y3000000D03*
D22*
X13500000Y5540000D03*
D11*
X42375000Y11550000D03*
X47375000Y11550000D03*
M02*
