G04 #@! TF.GenerationSoftware,KiCad,Pcbnew,7.0.8*
G04 #@! TF.CreationDate,2023-12-07T12:15:41+09:00*
G04 #@! TF.ProjectId,rat_board,7261745f-626f-4617-9264-2e6b69636164,rev?*
G04 #@! TF.SameCoordinates,PX632ea00PY8a48640*
G04 #@! TF.FileFunction,Copper,L2,Bot*
G04 #@! TF.FilePolarity,Positive*
%FSLAX46Y46*%
G04 Gerber Fmt 4.6, Leading zero omitted, Abs format (unit mm)*
G04 Created by KiCad (PCBNEW 7.0.8) date 2023-12-07 12:15:41*
%MOMM*%
%LPD*%
G01*
G04 APERTURE LIST*
G04 Aperture macros list*
%AMRoundRect*
0 Rectangle with rounded corners*
0 $1 Rounding radius*
0 $2 $3 $4 $5 $6 $7 $8 $9 X,Y pos of 4 corners*
0 Add a 4 corners polygon primitive as box body*
4,1,4,$2,$3,$4,$5,$6,$7,$8,$9,$2,$3,0*
0 Add four circle primitives for the rounded corners*
1,1,$1+$1,$2,$3*
1,1,$1+$1,$4,$5*
1,1,$1+$1,$6,$7*
1,1,$1+$1,$8,$9*
0 Add four rect primitives between the rounded corners*
20,1,$1+$1,$2,$3,$4,$5,0*
20,1,$1+$1,$4,$5,$6,$7,0*
20,1,$1+$1,$6,$7,$8,$9,0*
20,1,$1+$1,$8,$9,$2,$3,0*%
G04 Aperture macros list end*
G04 #@! TA.AperFunction,ComponentPad*
%ADD10C,1.700000*%
G04 #@! TD*
G04 #@! TA.AperFunction,ComponentPad*
%ADD11C,1.600000*%
G04 #@! TD*
G04 #@! TA.AperFunction,ComponentPad*
%ADD12O,1.600000X1.600000*%
G04 #@! TD*
G04 #@! TA.AperFunction,ComponentPad*
%ADD13O,1.700000X1.700000*%
G04 #@! TD*
G04 #@! TA.AperFunction,ComponentPad*
%ADD14RoundRect,0.250000X0.725000X-0.600000X0.725000X0.600000X-0.725000X0.600000X-0.725000X-0.600000X0*%
G04 #@! TD*
G04 #@! TA.AperFunction,ComponentPad*
%ADD15O,1.950000X1.700000*%
G04 #@! TD*
G04 #@! TA.AperFunction,ComponentPad*
%ADD16C,6.400000*%
G04 #@! TD*
G04 #@! TA.AperFunction,ComponentPad*
%ADD17RoundRect,0.250000X0.750000X-0.600000X0.750000X0.600000X-0.750000X0.600000X-0.750000X-0.600000X0*%
G04 #@! TD*
G04 #@! TA.AperFunction,ComponentPad*
%ADD18O,2.000000X1.700000*%
G04 #@! TD*
G04 #@! TA.AperFunction,ComponentPad*
%ADD19RoundRect,0.425000X0.425000X-0.425000X0.425000X0.425000X-0.425000X0.425000X-0.425000X-0.425000X0*%
G04 #@! TD*
G04 #@! TA.AperFunction,ComponentPad*
%ADD20RoundRect,0.425000X0.425000X0.425000X-0.425000X0.425000X-0.425000X-0.425000X0.425000X-0.425000X0*%
G04 #@! TD*
G04 #@! TA.AperFunction,ComponentPad*
%ADD21R,1.800000X1.800000*%
G04 #@! TD*
G04 #@! TA.AperFunction,ComponentPad*
%ADD22C,1.800000*%
G04 #@! TD*
G04 #@! TA.AperFunction,ComponentPad*
%ADD23RoundRect,0.250000X-0.600000X-0.750000X0.600000X-0.750000X0.600000X0.750000X-0.600000X0.750000X0*%
G04 #@! TD*
G04 #@! TA.AperFunction,ComponentPad*
%ADD24O,1.700000X2.000000*%
G04 #@! TD*
G04 #@! TA.AperFunction,ViaPad*
%ADD25C,0.800000*%
G04 #@! TD*
G04 #@! TA.AperFunction,Conductor*
%ADD26C,0.250000*%
G04 #@! TD*
G04 #@! TA.AperFunction,Conductor*
%ADD27C,0.400000*%
G04 #@! TD*
G04 APERTURE END LIST*
D10*
X45000000Y57500000D03*
X55000000Y57500000D03*
D11*
X58000000Y34000000D03*
D12*
X58000000Y26380000D03*
D10*
X9600000Y59700000D03*
D13*
X9600000Y57160000D03*
X9600000Y54620000D03*
X9600000Y52080000D03*
X9600000Y49540000D03*
X9600000Y47000000D03*
X9600000Y44460000D03*
X9600000Y41920000D03*
X9600000Y39380000D03*
X9600000Y36840000D03*
X9600000Y34300000D03*
X9600000Y31760000D03*
X9600000Y29220000D03*
X9600000Y26680000D03*
X9600000Y24140000D03*
X9600000Y21600000D03*
X9600000Y19060000D03*
X9600000Y16520000D03*
X9600000Y13980000D03*
X35000000Y13980000D03*
X35000000Y16520000D03*
X35000000Y19060000D03*
X35000000Y21600000D03*
X35000000Y24140000D03*
X35000000Y26680000D03*
X35000000Y29220000D03*
X35000000Y31760000D03*
X35000000Y34300000D03*
X35000000Y36840000D03*
X35000000Y39380000D03*
X35000000Y41920000D03*
X35000000Y44460000D03*
X35000000Y47000000D03*
X35000000Y49540000D03*
X35000000Y52080000D03*
X35000000Y54620000D03*
X35000000Y57160000D03*
X35000000Y59700000D03*
D14*
X55000000Y13500000D03*
D15*
X55000000Y16000000D03*
X55000000Y18500000D03*
X55000000Y21000000D03*
D16*
X4000000Y66000000D03*
D11*
X47375000Y23050000D03*
X42375000Y23050000D03*
D16*
X4000000Y4000000D03*
D17*
X65000000Y26500000D03*
D18*
X65000000Y29000000D03*
D11*
X15000000Y12690000D03*
D12*
X15000000Y20310000D03*
D17*
X65000000Y49500000D03*
D18*
X65000000Y52000000D03*
D19*
X31000000Y2250000D03*
D10*
X31000000Y8750000D03*
X35500000Y2250000D03*
X35500000Y8750000D03*
X51000000Y29460000D03*
X51000000Y32000000D03*
X51000000Y34540000D03*
X51000000Y37080000D03*
X51000000Y39620000D03*
X51000000Y42160000D03*
X44380000Y42160000D03*
X44380000Y39620000D03*
X44380000Y37080000D03*
X44380000Y34540000D03*
X44380000Y32000000D03*
X44380000Y29460000D03*
D20*
X45580000Y4000000D03*
D10*
X43040000Y4000000D03*
X40500000Y4000000D03*
D14*
X65000000Y14000000D03*
D15*
X65000000Y16500000D03*
X65000000Y19000000D03*
D11*
X22000000Y12690000D03*
D12*
X22000000Y20310000D03*
D21*
X21750000Y2960000D03*
D22*
X21750000Y5500000D03*
D11*
X28750000Y20310000D03*
D12*
X28750000Y12690000D03*
D16*
X66000000Y66000000D03*
X66000000Y4000000D03*
D17*
X65000000Y38000000D03*
D18*
X65000000Y40500000D03*
D23*
X53750000Y5000000D03*
D24*
X56250000Y5000000D03*
D21*
X13500000Y3000000D03*
D22*
X13500000Y5540000D03*
D11*
X42375000Y11550000D03*
X47375000Y11550000D03*
D25*
X26000000Y13000000D03*
X60000000Y1000000D03*
X32000000Y12000000D03*
X49000000Y31000000D03*
X58000000Y42000000D03*
X30000000Y69000000D03*
X1000000Y10000000D03*
X51000000Y12000000D03*
X20000000Y36000000D03*
X18000000Y57000000D03*
X63000000Y16000000D03*
X49000000Y9000000D03*
X10000000Y69000000D03*
X32000000Y18000000D03*
X37000000Y55500000D03*
X40000000Y1000000D03*
X40000000Y69000000D03*
X12000000Y15000000D03*
X62500000Y53000000D03*
X31000000Y57000000D03*
X69000000Y9000000D03*
X50000000Y69000000D03*
X69000000Y33000000D03*
X1000000Y40000000D03*
X38000000Y17000000D03*
X26000000Y46000000D03*
X12000000Y54000000D03*
X38500000Y48000000D03*
X60000000Y69000000D03*
X12000000Y36000000D03*
X69000000Y60000000D03*
X1000000Y30000000D03*
X69000000Y45000000D03*
X1000000Y20000000D03*
X53000000Y31000000D03*
X1000000Y50000000D03*
X12000000Y25000000D03*
X20000000Y69000000D03*
X50000000Y52000000D03*
X50000000Y1000000D03*
X26000000Y39000000D03*
X1000000Y60000000D03*
X26000000Y22000000D03*
D26*
X65000000Y26500000D02*
X58120000Y26500000D01*
X52880000Y26380000D02*
X58000000Y26380000D01*
X58120000Y26500000D02*
X58000000Y26380000D01*
X48100000Y21600000D02*
X52880000Y26380000D01*
X35000000Y21600000D02*
X48100000Y21600000D01*
D27*
X58000000Y34000000D02*
X62500000Y34000000D01*
X68000000Y28500000D02*
X68000000Y14750000D01*
X68000000Y14750000D02*
X66000000Y12750000D01*
X49000000Y28000000D02*
X46000000Y31000000D01*
X41500000Y13500000D02*
X40250000Y12250000D01*
X66000000Y12750000D02*
X55750000Y12750000D01*
X52000000Y28000000D02*
X49000000Y28000000D01*
X46000000Y40540000D02*
X44380000Y42160000D01*
X34750000Y12250000D02*
X28750000Y18250000D01*
X40250000Y12250000D02*
X34750000Y12250000D01*
X62500000Y34000000D02*
X68000000Y28500000D01*
X46000000Y31000000D02*
X46000000Y40540000D01*
X58000000Y34000000D02*
X52000000Y28000000D01*
X55000000Y13500000D02*
X41500000Y13500000D01*
X28750000Y18250000D02*
X28750000Y20310000D01*
X55750000Y12750000D02*
X55000000Y13500000D01*
X35000000Y44460000D02*
X33540000Y44460000D01*
X33540000Y44460000D02*
X33000000Y45000000D01*
X36040000Y44460000D02*
X36500000Y44000000D01*
X35000000Y44460000D02*
X36040000Y44460000D01*
D26*
X28750000Y11000000D02*
X28750000Y12690000D01*
X31000000Y8750000D02*
X28750000Y11000000D01*
G04 #@! TA.AperFunction,Conductor*
G36*
X66673003Y28961970D02*
G01*
X66727374Y28923391D01*
X67341214Y28309551D01*
X67388333Y28234563D01*
X67399500Y28168837D01*
X67399500Y15081163D01*
X67379793Y14994820D01*
X67341214Y14940449D01*
X66715214Y14314449D01*
X66640226Y14267330D01*
X66552219Y14257414D01*
X66468626Y14286665D01*
X66406002Y14349289D01*
X66376751Y14432882D01*
X66375500Y14455163D01*
X66375500Y14665692D01*
X66375500Y14665694D01*
X66372598Y14702569D01*
X66326744Y14860398D01*
X66315441Y14879511D01*
X66243082Y15001864D01*
X66126863Y15118083D01*
X65985399Y15201744D01*
X65979810Y15204162D01*
X65908395Y15256539D01*
X65866777Y15334714D01*
X65863200Y15423206D01*
X65898372Y15504485D01*
X65941873Y15547791D01*
X65951078Y15554478D01*
X66106632Y15717175D01*
X66230635Y15905032D01*
X66319103Y16112012D01*
X66369191Y16331463D01*
X66379290Y16556330D01*
X66349075Y16779387D01*
X66279517Y16993464D01*
X66279515Y16993468D01*
X66279514Y16993471D01*
X66202203Y17137137D01*
X66172852Y17191681D01*
X66079882Y17308261D01*
X66032510Y17367664D01*
X65862997Y17515765D01*
X65862992Y17515768D01*
X65761314Y17576517D01*
X65697300Y17637720D01*
X65666181Y17720636D01*
X65674120Y17808843D01*
X65719543Y17884870D01*
X65761324Y17918187D01*
X65768719Y17922606D01*
X65950748Y18054858D01*
X66106233Y18217482D01*
X66106245Y18217497D01*
X66230193Y18405272D01*
X66230194Y18405273D01*
X66318623Y18612164D01*
X66361495Y18800000D01*
X65436102Y18800000D01*
X65436519Y18800649D01*
X65475000Y18931705D01*
X65475000Y19068295D01*
X65436519Y19199351D01*
X65436102Y19200000D01*
X66359323Y19200000D01*
X66348584Y19279274D01*
X66348581Y19279287D01*
X66279057Y19493264D01*
X66172430Y19691408D01*
X66032148Y19867317D01*
X65862700Y20015358D01*
X65669548Y20130762D01*
X65458888Y20209824D01*
X65237503Y20250000D01*
X65200000Y20250000D01*
X65200000Y19430853D01*
X65135199Y19460446D01*
X65033975Y19475000D01*
X64966025Y19475000D01*
X64864801Y19460446D01*
X64800000Y19430853D01*
X64800000Y20248302D01*
X64799999Y20248302D01*
X64650908Y20234884D01*
X64650902Y20234883D01*
X64434004Y20175023D01*
X64231283Y20077398D01*
X64049251Y19945143D01*
X63893766Y19782519D01*
X63893754Y19782504D01*
X63769806Y19594729D01*
X63769805Y19594728D01*
X63681376Y19387837D01*
X63638504Y19200001D01*
X63638505Y19200000D01*
X64563898Y19200000D01*
X64563481Y19199351D01*
X64525000Y19068295D01*
X64525000Y18931705D01*
X64563481Y18800649D01*
X64563898Y18800000D01*
X63640676Y18800000D01*
X63651415Y18720727D01*
X63651418Y18720714D01*
X63720942Y18506737D01*
X63827569Y18308593D01*
X63967851Y18132684D01*
X64137299Y17984643D01*
X64238685Y17924067D01*
X64302697Y17862864D01*
X64333816Y17779948D01*
X64325877Y17691741D01*
X64280453Y17615714D01*
X64238687Y17582406D01*
X64231025Y17577829D01*
X64048920Y17445521D01*
X63893373Y17282832D01*
X63893365Y17282822D01*
X63769366Y17094972D01*
X63680896Y16887986D01*
X63630808Y16668535D01*
X63624138Y16520000D01*
X63620710Y16443670D01*
X63650925Y16220613D01*
X63650926Y16220609D01*
X63650927Y16220606D01*
X63720485Y16006530D01*
X63827147Y15808321D01*
X63827149Y15808318D01*
X63967489Y15632337D01*
X63967491Y15632336D01*
X63967492Y15632334D01*
X64008742Y15596295D01*
X64075375Y15538079D01*
X64127431Y15466429D01*
X64143245Y15379289D01*
X64119683Y15293918D01*
X64061414Y15227223D01*
X64023476Y15205584D01*
X64014600Y15201744D01*
X63873136Y15118083D01*
X63756917Y15001864D01*
X63673256Y14860400D01*
X63627402Y14702570D01*
X63624500Y14665692D01*
X63624500Y13549500D01*
X63604793Y13463157D01*
X63549574Y13393916D01*
X63469782Y13355489D01*
X63425500Y13350500D01*
X56574500Y13350500D01*
X56488157Y13370207D01*
X56418916Y13425426D01*
X56380489Y13505218D01*
X56375500Y13549500D01*
X56375500Y14165692D01*
X56375500Y14165694D01*
X56372598Y14202569D01*
X56326744Y14360398D01*
X56298951Y14407394D01*
X56243082Y14501864D01*
X56126863Y14618083D01*
X55985399Y14701744D01*
X55979274Y14704394D01*
X55907860Y14756772D01*
X55866243Y14834949D01*
X55862668Y14923440D01*
X55897841Y15004719D01*
X55941345Y15048026D01*
X55950749Y15054859D01*
X56106233Y15217482D01*
X56106245Y15217497D01*
X56230193Y15405272D01*
X56230194Y15405273D01*
X56318623Y15612164D01*
X56361495Y15800000D01*
X55436102Y15800000D01*
X55436519Y15800649D01*
X55475000Y15931705D01*
X55475000Y16068295D01*
X55436519Y16199351D01*
X55436102Y16200000D01*
X56359323Y16200000D01*
X56348584Y16279274D01*
X56348581Y16279287D01*
X56279057Y16493264D01*
X56172430Y16691408D01*
X56032148Y16867317D01*
X55862700Y17015358D01*
X55761314Y17075934D01*
X55697301Y17137137D01*
X55666183Y17220054D01*
X55674122Y17308261D01*
X55719547Y17384287D01*
X55761325Y17417602D01*
X55768969Y17422170D01*
X55768973Y17422171D01*
X55951078Y17554478D01*
X56106632Y17717175D01*
X56230635Y17905032D01*
X56319103Y18112012D01*
X56369191Y18331463D01*
X56379290Y18556330D01*
X56349075Y18779387D01*
X56279517Y18993464D01*
X56279515Y18993468D01*
X56279514Y18993471D01*
X56195075Y19150383D01*
X56172852Y19191681D01*
X56074855Y19314565D01*
X56032510Y19367664D01*
X56009420Y19387837D01*
X55991258Y19403705D01*
X55862997Y19515765D01*
X55862989Y19515770D01*
X55761803Y19576226D01*
X55697790Y19637429D01*
X55666671Y19720345D01*
X55674610Y19808552D01*
X55720034Y19884579D01*
X55761817Y19917897D01*
X55768962Y19922166D01*
X55768973Y19922171D01*
X55951078Y20054478D01*
X56106632Y20217175D01*
X56230635Y20405032D01*
X56319103Y20612012D01*
X56369191Y20831463D01*
X56379290Y21056330D01*
X56349075Y21279387D01*
X56279517Y21493464D01*
X56279515Y21493468D01*
X56279514Y21493471D01*
X56216835Y21609947D01*
X56172852Y21691681D01*
X56072134Y21817977D01*
X56032510Y21867664D01*
X55862997Y22015765D01*
X55862992Y22015768D01*
X55669761Y22131217D01*
X55669759Y22131218D01*
X55459026Y22210307D01*
X55237547Y22250500D01*
X54818845Y22250500D01*
X54763855Y22245551D01*
X54650819Y22235378D01*
X54650814Y22235378D01*
X54650812Y22235377D01*
X54650809Y22235377D01*
X54650802Y22235375D01*
X54433831Y22175494D01*
X54231024Y22077828D01*
X54048920Y21945521D01*
X53893373Y21782832D01*
X53893365Y21782822D01*
X53769366Y21594972D01*
X53680896Y21387986D01*
X53630808Y21168535D01*
X53621998Y20972358D01*
X53620710Y20943670D01*
X53650925Y20720613D01*
X53719241Y20510357D01*
X53720485Y20506530D01*
X53827147Y20308321D01*
X53827149Y20308318D01*
X53967489Y20132337D01*
X53967491Y20132336D01*
X53967492Y20132334D01*
X54017704Y20088465D01*
X54137002Y19984236D01*
X54137010Y19984231D01*
X54238196Y19923775D01*
X54302209Y19862573D01*
X54333328Y19779657D01*
X54325389Y19691450D01*
X54279965Y19615423D01*
X54238195Y19582112D01*
X54231027Y19577830D01*
X54048920Y19445521D01*
X53893373Y19282832D01*
X53893365Y19282822D01*
X53769366Y19094972D01*
X53680896Y18887986D01*
X53630808Y18668535D01*
X53623933Y18515437D01*
X53620710Y18443670D01*
X53650925Y18220613D01*
X53650926Y18220609D01*
X53650927Y18220606D01*
X53720485Y18006530D01*
X53775106Y17905029D01*
X53827148Y17808319D01*
X53849773Y17779948D01*
X53967489Y17632337D01*
X53967491Y17632336D01*
X53967492Y17632334D01*
X54024523Y17582507D01*
X54137002Y17484236D01*
X54137006Y17484233D01*
X54238685Y17423484D01*
X54302698Y17362282D01*
X54333818Y17279366D01*
X54325880Y17191159D01*
X54280456Y17115131D01*
X54238688Y17081822D01*
X54231288Y17077401D01*
X54049251Y16945143D01*
X53893766Y16782519D01*
X53893754Y16782504D01*
X53769806Y16594729D01*
X53769805Y16594728D01*
X53681376Y16387837D01*
X53638504Y16200001D01*
X53638505Y16200000D01*
X54563898Y16200000D01*
X54563481Y16199351D01*
X54525000Y16068295D01*
X54525000Y15931705D01*
X54563481Y15800649D01*
X54563898Y15800000D01*
X53640676Y15800000D01*
X53651415Y15720727D01*
X53651418Y15720714D01*
X53720942Y15506737D01*
X53827569Y15308593D01*
X53967851Y15132684D01*
X54075883Y15038300D01*
X54127940Y14966651D01*
X54143754Y14879511D01*
X54120193Y14794139D01*
X54061924Y14727444D01*
X54023983Y14705803D01*
X54014599Y14701743D01*
X53873136Y14618083D01*
X53756917Y14501864D01*
X53673256Y14360400D01*
X53639433Y14243980D01*
X53596419Y14166564D01*
X53524075Y14115477D01*
X53448335Y14100500D01*
X41545893Y14100500D01*
X41532893Y14101352D01*
X41500000Y14105682D01*
X41460638Y14100500D01*
X41343244Y14085046D01*
X41343235Y14085043D01*
X41197159Y14024537D01*
X41197152Y14024533D01*
X41071719Y13928285D01*
X41051515Y13901956D01*
X41042926Y13892163D01*
X40544681Y13393916D01*
X40059551Y12908786D01*
X39984563Y12861667D01*
X39918837Y12850500D01*
X36117642Y12850500D01*
X36031299Y12870207D01*
X35962058Y12925426D01*
X35923631Y13005218D01*
X35923631Y13093782D01*
X35957959Y13165065D01*
X35956615Y13166006D01*
X36087100Y13352358D01*
X36087102Y13352362D01*
X36179575Y13550670D01*
X36236207Y13762023D01*
X36255277Y13980000D01*
X36236207Y14197977D01*
X36179575Y14409330D01*
X36168592Y14432882D01*
X36087103Y14607636D01*
X36079789Y14618081D01*
X35989101Y14747598D01*
X35961601Y14786873D01*
X35961599Y14786875D01*
X35961598Y14786877D01*
X35806877Y14941598D01*
X35806876Y14941599D01*
X35806875Y14941600D01*
X35627642Y15067101D01*
X35627638Y15067103D01*
X35622190Y15069643D01*
X35552264Y15123992D01*
X35512844Y15203298D01*
X35511737Y15291855D01*
X35549164Y15372121D01*
X35617710Y15428200D01*
X35622190Y15430357D01*
X35623069Y15430768D01*
X35627639Y15432898D01*
X35806877Y15558402D01*
X35961598Y15713123D01*
X36087102Y15892361D01*
X36179575Y16090670D01*
X36236207Y16302023D01*
X36255277Y16520000D01*
X36236207Y16737977D01*
X36179575Y16949330D01*
X36148785Y17015358D01*
X36087103Y17147636D01*
X36056263Y17191680D01*
X35974633Y17308261D01*
X35961601Y17326873D01*
X35961599Y17326875D01*
X35961598Y17326877D01*
X35806877Y17481598D01*
X35806876Y17481599D01*
X35806875Y17481600D01*
X35627642Y17607101D01*
X35627638Y17607103D01*
X35622190Y17609643D01*
X35552264Y17663992D01*
X35512844Y17743298D01*
X35511737Y17831855D01*
X35549164Y17912121D01*
X35617710Y17968200D01*
X35622190Y17970357D01*
X35623069Y17970768D01*
X35627639Y17972898D01*
X35806877Y18098402D01*
X35961598Y18253123D01*
X36087102Y18432361D01*
X36179575Y18630670D01*
X36236207Y18842023D01*
X36255277Y19060000D01*
X36236207Y19277977D01*
X36179575Y19489330D01*
X36130426Y19594729D01*
X36087103Y19687636D01*
X36084432Y19691450D01*
X35961598Y19866877D01*
X35806877Y20021598D01*
X35806876Y20021599D01*
X35806875Y20021600D01*
X35627642Y20147101D01*
X35627638Y20147103D01*
X35622190Y20149643D01*
X35552264Y20203992D01*
X35512844Y20283298D01*
X35511737Y20371855D01*
X35549164Y20452121D01*
X35617710Y20508200D01*
X35622190Y20510357D01*
X35623069Y20510768D01*
X35627639Y20512898D01*
X35806877Y20638402D01*
X35961598Y20793123D01*
X36087102Y20972361D01*
X36087107Y20972373D01*
X36088616Y20974985D01*
X36089937Y20976410D01*
X36092086Y20979478D01*
X36092509Y20979182D01*
X36148849Y21039912D01*
X36231287Y21072275D01*
X36260964Y21074500D01*
X48091016Y21074500D01*
X48154243Y21072340D01*
X48154243Y21072341D01*
X48154245Y21072340D01*
X48193278Y21081853D01*
X48203293Y21083756D01*
X48215047Y21085372D01*
X48243111Y21089229D01*
X48252491Y21093304D01*
X48284660Y21104123D01*
X48294594Y21106543D01*
X48329615Y21126236D01*
X48338742Y21130768D01*
X48352769Y21136861D01*
X48375609Y21146781D01*
X48383537Y21153231D01*
X48411603Y21172333D01*
X48412964Y21173099D01*
X48420512Y21177342D01*
X48448942Y21205774D01*
X48456483Y21212579D01*
X48487665Y21237946D01*
X48493561Y21246299D01*
X48515422Y21272254D01*
X53039384Y25796214D01*
X53114373Y25843333D01*
X53180098Y25854500D01*
X56797357Y25854500D01*
X56883700Y25834793D01*
X56952941Y25779574D01*
X56969886Y25752998D01*
X56970101Y25753130D01*
X56974945Y25745306D01*
X57093586Y25588200D01*
X57109019Y25567764D01*
X57273438Y25417876D01*
X57462599Y25300753D01*
X57670060Y25220382D01*
X57888757Y25179500D01*
X57888759Y25179500D01*
X58111241Y25179500D01*
X58111243Y25179500D01*
X58329940Y25220382D01*
X58537401Y25300753D01*
X58726562Y25417876D01*
X58890981Y25567764D01*
X59025058Y25745311D01*
X59084259Y25864203D01*
X59140386Y25932709D01*
X59220679Y25970078D01*
X59262396Y25974500D01*
X63404512Y25974500D01*
X63490855Y25954793D01*
X63560096Y25899574D01*
X63598523Y25819782D01*
X63600412Y25807409D01*
X63600574Y25807438D01*
X63602401Y25797433D01*
X63648256Y25639601D01*
X63731917Y25498137D01*
X63848136Y25381918D01*
X63989600Y25298257D01*
X63989602Y25298256D01*
X64147431Y25252402D01*
X64184306Y25249500D01*
X64184308Y25249500D01*
X65815692Y25249500D01*
X65815694Y25249500D01*
X65852569Y25252402D01*
X66010398Y25298256D01*
X66151865Y25381919D01*
X66268081Y25498135D01*
X66351744Y25639602D01*
X66397598Y25797431D01*
X66400500Y25834306D01*
X66400500Y27165694D01*
X66397598Y27202569D01*
X66351744Y27360398D01*
X66319478Y27414957D01*
X66268082Y27501864D01*
X66151863Y27618083D01*
X66010399Y27701744D01*
X66004274Y27704394D01*
X65932860Y27756772D01*
X65891243Y27834949D01*
X65887668Y27923440D01*
X65922841Y28004719D01*
X65966345Y28048026D01*
X65975749Y28054859D01*
X66131233Y28217482D01*
X66131245Y28217497D01*
X66255193Y28405272D01*
X66255194Y28405273D01*
X66343624Y28612166D01*
X66392649Y28826958D01*
X66431075Y28906751D01*
X66500317Y28961970D01*
X66586660Y28981677D01*
X66673003Y28961970D01*
G37*
G04 #@! TD.AperFunction*
G04 #@! TA.AperFunction,Conductor*
G36*
X3999612Y69981236D02*
G01*
X4003570Y69984066D01*
X4080411Y69999500D01*
X65919589Y69999500D01*
X65999612Y69981236D01*
X66003570Y69984066D01*
X66080411Y69999500D01*
X69800500Y69999500D01*
X69886843Y69979793D01*
X69956084Y69924574D01*
X69994511Y69844782D01*
X69999500Y69800500D01*
X69999500Y66080412D01*
X69981235Y66000389D01*
X69984066Y65996430D01*
X69999500Y65919589D01*
X69999500Y4080412D01*
X69981235Y4000389D01*
X69984066Y3996430D01*
X69999500Y3919589D01*
X69999500Y199500D01*
X69979793Y113157D01*
X69924574Y43916D01*
X69844782Y5489D01*
X69800500Y500D01*
X66080411Y500D01*
X66000387Y18765D01*
X65996430Y15934D01*
X65919589Y500D01*
X4080411Y500D01*
X4000387Y18765D01*
X3996430Y15934D01*
X3919589Y500D01*
X199500Y500D01*
X113157Y20207D01*
X43916Y75426D01*
X5489Y155218D01*
X500Y199500D01*
X500Y3919589D01*
X18764Y3999613D01*
X15934Y4003571D01*
X15920Y4003643D01*
X379379Y4003643D01*
X398227Y3930004D01*
X414308Y3623145D01*
X414309Y3623131D01*
X473345Y3250395D01*
X473349Y3250378D01*
X571019Y2885864D01*
X571023Y2885853D01*
X706260Y2533548D01*
X706270Y2533527D01*
X739671Y2467973D01*
X877597Y2197279D01*
X1083137Y1880775D01*
X1320635Y1587489D01*
X1587489Y1320635D01*
X1880775Y1083137D01*
X2197279Y877597D01*
X2533535Y706266D01*
X2533542Y706264D01*
X2533547Y706261D01*
X2885852Y571024D01*
X2885863Y571020D01*
X3086475Y517267D01*
X3250387Y473347D01*
X3623129Y414310D01*
X3623132Y414310D01*
X3623144Y414309D01*
X3930004Y398227D01*
X3996358Y379380D01*
X4069996Y398227D01*
X4376855Y414309D01*
X4376863Y414310D01*
X4376871Y414310D01*
X4749613Y473347D01*
X5114143Y571022D01*
X5466465Y706266D01*
X5802721Y877597D01*
X6119225Y1083137D01*
X6412511Y1320635D01*
X6679365Y1587489D01*
X6916863Y1880775D01*
X7122403Y2197279D01*
X7293734Y2533535D01*
X7428978Y2885857D01*
X7526653Y3250387D01*
X7585690Y3623129D01*
X7587007Y3648257D01*
X7605441Y3999995D01*
X7605441Y4000006D01*
X7585691Y4376856D01*
X7585690Y4376870D01*
X7566195Y4499953D01*
X7526653Y4749613D01*
X7469851Y4961602D01*
X7428980Y5114137D01*
X7428976Y5114148D01*
X7293739Y5466453D01*
X7293736Y5466458D01*
X7293734Y5466465D01*
X7256266Y5540000D01*
X12194532Y5540000D01*
X12214365Y5313308D01*
X12214367Y5313296D01*
X12273258Y5093510D01*
X12273261Y5093504D01*
X12369432Y4887266D01*
X12499953Y4700861D01*
X12499954Y4700860D01*
X12499955Y4700859D01*
X12579211Y4621603D01*
X12626330Y4546615D01*
X12636246Y4458608D01*
X12606995Y4375015D01*
X12544371Y4312391D01*
X12489203Y4291684D01*
X12489749Y4290006D01*
X12474852Y4285166D01*
X12361954Y4227642D01*
X12272358Y4138046D01*
X12214835Y4025151D01*
X12214834Y4025149D01*
X12200000Y3931481D01*
X12200000Y3200000D01*
X13095855Y3200000D01*
X13076375Y3166260D01*
X13046190Y3034008D01*
X13056327Y2898735D01*
X13095078Y2800000D01*
X12200001Y2800000D01*
X12200001Y2068524D01*
X12214835Y1974851D01*
X12272358Y1861955D01*
X12361954Y1772359D01*
X12474849Y1714836D01*
X12474851Y1714835D01*
X12568518Y1700001D01*
X13299999Y1700001D01*
X13300000Y1700002D01*
X13300000Y2591721D01*
X13302547Y2589984D01*
X13432173Y2550000D01*
X13533724Y2550000D01*
X13634138Y2565135D01*
X13700000Y2596853D01*
X13700000Y1700001D01*
X14431477Y1700001D01*
X14525149Y1714836D01*
X14638045Y1772359D01*
X14727641Y1861955D01*
X14785164Y1974850D01*
X14785165Y1974852D01*
X14800000Y2068520D01*
X14800000Y2800000D01*
X13904145Y2800000D01*
X13923625Y2833740D01*
X13953810Y2965992D01*
X13943673Y3101265D01*
X13904922Y3200000D01*
X14799999Y3200000D01*
X14799999Y3931477D01*
X14785164Y4025150D01*
X14727641Y4138046D01*
X14638045Y4227642D01*
X14525150Y4285165D01*
X14510255Y4290004D01*
X14510945Y4292130D01*
X14448171Y4317312D01*
X14388421Y4382683D01*
X14362952Y4467505D01*
X14376807Y4554978D01*
X14420786Y4621601D01*
X14500047Y4700861D01*
X14630568Y4887266D01*
X14726739Y5093504D01*
X14732270Y5114143D01*
X14785632Y5313296D01*
X14785632Y5313299D01*
X14785635Y5313308D01*
X14801968Y5500000D01*
X20444532Y5500000D01*
X20464365Y5273308D01*
X20464367Y5273296D01*
X20523258Y5053510D01*
X20523261Y5053504D01*
X20619432Y4847266D01*
X20749953Y4660861D01*
X20749954Y4660860D01*
X20749955Y4660859D01*
X20829211Y4581603D01*
X20876330Y4506615D01*
X20886246Y4418608D01*
X20856995Y4335015D01*
X20794371Y4272391D01*
X20739203Y4251684D01*
X20739749Y4250006D01*
X20724852Y4245166D01*
X20611954Y4187642D01*
X20522358Y4098046D01*
X20464835Y3985151D01*
X20464834Y3985149D01*
X20450000Y3891481D01*
X20450000Y3160000D01*
X21345855Y3160000D01*
X21326375Y3126260D01*
X21296190Y2994008D01*
X21306327Y2858735D01*
X21345078Y2760000D01*
X20450001Y2760000D01*
X20450001Y2028524D01*
X20464835Y1934851D01*
X20522358Y1821955D01*
X20611954Y1732359D01*
X20724849Y1674836D01*
X20724851Y1674835D01*
X20818518Y1660001D01*
X21549999Y1660001D01*
X21550000Y1660002D01*
X21550000Y2551721D01*
X21552547Y2549984D01*
X21682173Y2510000D01*
X21783724Y2510000D01*
X21884138Y2525135D01*
X21950000Y2556853D01*
X21950000Y1660001D01*
X22681477Y1660001D01*
X22775149Y1674836D01*
X22888045Y1732359D01*
X22908941Y1753255D01*
X29750000Y1753255D01*
X29752731Y1712971D01*
X29752732Y1712967D01*
X29796040Y1538825D01*
X29875768Y1378066D01*
X29875774Y1378056D01*
X29988195Y1238198D01*
X29988197Y1238196D01*
X30128055Y1125775D01*
X30128065Y1125769D01*
X30288824Y1046041D01*
X30462966Y1002733D01*
X30462970Y1002732D01*
X30503255Y1000000D01*
X30800000Y1000000D01*
X30800000Y1791665D01*
X30857685Y1765320D01*
X30964237Y1750000D01*
X31035763Y1750000D01*
X31142315Y1765320D01*
X31200000Y1791665D01*
X31200000Y1000000D01*
X31496745Y1000000D01*
X31537029Y1002732D01*
X31537033Y1002733D01*
X31711175Y1046041D01*
X31871934Y1125769D01*
X31871944Y1125775D01*
X32011802Y1238196D01*
X32011804Y1238198D01*
X32124225Y1378056D01*
X32124231Y1378066D01*
X32203959Y1538825D01*
X32247267Y1712967D01*
X32247268Y1712971D01*
X32250000Y1753255D01*
X32250000Y2050000D01*
X31462383Y2050000D01*
X31500000Y2178111D01*
X31500000Y2250000D01*
X34244723Y2250000D01*
X34263792Y2032028D01*
X34263793Y2032021D01*
X34320424Y1820672D01*
X34320427Y1820665D01*
X34412897Y1622362D01*
X34412899Y1622358D01*
X34538403Y1443121D01*
X34693120Y1288404D01*
X34872357Y1162900D01*
X34872361Y1162898D01*
X35070670Y1070425D01*
X35282023Y1013793D01*
X35500000Y994723D01*
X35717977Y1013793D01*
X35929330Y1070425D01*
X36127639Y1162898D01*
X36306877Y1288402D01*
X36461598Y1443123D01*
X36587102Y1622361D01*
X36679575Y1820670D01*
X36736207Y2032023D01*
X36755277Y2250000D01*
X36736207Y2467977D01*
X36679575Y2679330D01*
X36654800Y2732459D01*
X36587103Y2877636D01*
X36581349Y2885853D01*
X36461598Y3056877D01*
X36306877Y3211598D01*
X36306876Y3211599D01*
X36306875Y3211600D01*
X36127642Y3337101D01*
X36127638Y3337103D01*
X35929335Y3429573D01*
X35929328Y3429576D01*
X35717979Y3486207D01*
X35717972Y3486208D01*
X35500000Y3505277D01*
X35282027Y3486208D01*
X35282020Y3486207D01*
X35070671Y3429576D01*
X35070665Y3429574D01*
X34872364Y3337104D01*
X34693127Y3211602D01*
X34693119Y3211595D01*
X34538405Y3056881D01*
X34538398Y3056873D01*
X34412896Y2877636D01*
X34320426Y2679335D01*
X34320424Y2679329D01*
X34263793Y2467980D01*
X34263792Y2467973D01*
X34244723Y2250000D01*
X31500000Y2250000D01*
X31500000Y2321889D01*
X31462383Y2450000D01*
X32250000Y2450000D01*
X32250000Y2746745D01*
X32247268Y2787030D01*
X32247267Y2787034D01*
X32203959Y2961176D01*
X32124231Y3121935D01*
X32124225Y3121945D01*
X32011804Y3261803D01*
X32011802Y3261805D01*
X31871944Y3374226D01*
X31871934Y3374232D01*
X31711175Y3453960D01*
X31537033Y3497268D01*
X31537029Y3497269D01*
X31496745Y3500000D01*
X31200000Y3500000D01*
X31200000Y2708336D01*
X31142315Y2734680D01*
X31035763Y2750000D01*
X30964237Y2750000D01*
X30857685Y2734680D01*
X30800000Y2708336D01*
X30800000Y3500000D01*
X30503255Y3500000D01*
X30462970Y3497269D01*
X30462966Y3497268D01*
X30288824Y3453960D01*
X30128065Y3374232D01*
X30128055Y3374226D01*
X29988197Y3261805D01*
X29988195Y3261803D01*
X29875774Y3121945D01*
X29875768Y3121935D01*
X29796040Y2961176D01*
X29752732Y2787034D01*
X29752731Y2787030D01*
X29750000Y2746745D01*
X29750000Y2450000D01*
X30537617Y2450000D01*
X30500000Y2321889D01*
X30500000Y2178111D01*
X30537617Y2050000D01*
X29750000Y2050000D01*
X29750000Y1753255D01*
X22908941Y1753255D01*
X22977641Y1821955D01*
X23035164Y1934850D01*
X23035165Y1934852D01*
X23050000Y2028520D01*
X23050000Y2760000D01*
X22154145Y2760000D01*
X22173625Y2793740D01*
X22203810Y2925992D01*
X22193673Y3061265D01*
X22154922Y3160000D01*
X23049999Y3160000D01*
X23049999Y3891477D01*
X23035164Y3985150D01*
X23027598Y4000000D01*
X39244723Y4000000D01*
X39263792Y3782028D01*
X39263793Y3782021D01*
X39320424Y3570672D01*
X39320427Y3570665D01*
X39412897Y3372362D01*
X39412899Y3372358D01*
X39538403Y3193121D01*
X39693120Y3038404D01*
X39872357Y2912900D01*
X39872361Y2912898D01*
X40070670Y2820425D01*
X40282023Y2763793D01*
X40500000Y2744723D01*
X40717977Y2763793D01*
X40929330Y2820425D01*
X41127639Y2912898D01*
X41306877Y3038402D01*
X41461598Y3193123D01*
X41587102Y3372361D01*
X41589643Y3377810D01*
X41643992Y3447736D01*
X41723298Y3487156D01*
X41811855Y3488263D01*
X41892121Y3450836D01*
X41948200Y3382290D01*
X41950357Y3377810D01*
X41952897Y3372362D01*
X41952899Y3372358D01*
X42078403Y3193121D01*
X42233120Y3038404D01*
X42412357Y2912900D01*
X42412361Y2912898D01*
X42610670Y2820425D01*
X42822023Y2763793D01*
X43040000Y2744723D01*
X43257977Y2763793D01*
X43469330Y2820425D01*
X43667639Y2912898D01*
X43846877Y3038402D01*
X44001598Y3193123D01*
X44055929Y3270717D01*
X44121597Y3330141D01*
X44206544Y3355188D01*
X44293947Y3340898D01*
X44366494Y3290101D01*
X44397217Y3244996D01*
X44455347Y3127790D01*
X44505476Y3065427D01*
X44567840Y2987841D01*
X44630204Y2937712D01*
X44707790Y2875347D01*
X44868651Y2795567D01*
X45042900Y2752234D01*
X45080481Y2749686D01*
X45083215Y2749500D01*
X45083216Y2749500D01*
X46076785Y2749500D01*
X46079345Y2749674D01*
X46117100Y2752234D01*
X46291349Y2795567D01*
X46452210Y2875347D01*
X46592159Y2987841D01*
X46704653Y3127790D01*
X46784433Y3288651D01*
X46827766Y3462900D01*
X46830500Y3503216D01*
X46830500Y4184308D01*
X52499500Y4184308D01*
X52502402Y4147431D01*
X52548256Y3989601D01*
X52631917Y3848137D01*
X52748136Y3731918D01*
X52808967Y3695943D01*
X52889602Y3648256D01*
X53047431Y3602402D01*
X53084306Y3599500D01*
X53084308Y3599500D01*
X54415692Y3599500D01*
X54415694Y3599500D01*
X54452569Y3602402D01*
X54610398Y3648256D01*
X54751865Y3731919D01*
X54868081Y3848135D01*
X54951744Y3989602D01*
X54951746Y3989610D01*
X54954390Y3995717D01*
X55006764Y4067134D01*
X55084939Y4108754D01*
X55173429Y4112334D01*
X55254710Y4077164D01*
X55298020Y4033662D01*
X55304857Y4024252D01*
X55467481Y3868767D01*
X55467496Y3868755D01*
X55655271Y3744807D01*
X55655272Y3744806D01*
X55862163Y3656377D01*
X56049999Y3613505D01*
X56050000Y3613505D01*
X56050000Y4541665D01*
X56107685Y4515320D01*
X56214237Y4500000D01*
X56285763Y4500000D01*
X56392315Y4515320D01*
X56450000Y4541665D01*
X56450000Y3615677D01*
X56529272Y3626414D01*
X56529273Y3626415D01*
X56743263Y3695943D01*
X56941407Y3802570D01*
X57117316Y3942852D01*
X57167240Y3999995D01*
X62394559Y3999995D01*
X62414308Y3623145D01*
X62414309Y3623131D01*
X62473345Y3250395D01*
X62473349Y3250378D01*
X62571019Y2885864D01*
X62571023Y2885853D01*
X62706260Y2533548D01*
X62706270Y2533527D01*
X62739671Y2467973D01*
X62877597Y2197279D01*
X63083137Y1880775D01*
X63320635Y1587489D01*
X63587489Y1320635D01*
X63880775Y1083137D01*
X64197279Y877597D01*
X64533535Y706266D01*
X64533542Y706264D01*
X64533547Y706261D01*
X64885852Y571024D01*
X64885863Y571020D01*
X65086475Y517267D01*
X65250387Y473347D01*
X65623129Y414310D01*
X65623132Y414310D01*
X65623144Y414309D01*
X65930004Y398227D01*
X65996358Y379380D01*
X66069996Y398227D01*
X66376855Y414309D01*
X66376863Y414310D01*
X66376871Y414310D01*
X66749613Y473347D01*
X67114143Y571022D01*
X67466465Y706266D01*
X67802721Y877597D01*
X68119225Y1083137D01*
X68412511Y1320635D01*
X68679365Y1587489D01*
X68916863Y1880775D01*
X69122403Y2197279D01*
X69293734Y2533535D01*
X69428978Y2885857D01*
X69526653Y3250387D01*
X69585690Y3623129D01*
X69587007Y3648257D01*
X69601773Y3930004D01*
X69620620Y3996359D01*
X69601773Y4069997D01*
X69585691Y4376856D01*
X69585690Y4376870D01*
X69566195Y4499953D01*
X69526653Y4749613D01*
X69469851Y4961602D01*
X69428980Y5114137D01*
X69428976Y5114148D01*
X69293739Y5466453D01*
X69293736Y5466458D01*
X69293734Y5466465D01*
X69215282Y5620434D01*
X69122404Y5802719D01*
X69122400Y5802726D01*
X68916861Y6119228D01*
X68679364Y6412512D01*
X68412511Y6679365D01*
X68281278Y6785635D01*
X68119225Y6916863D01*
X67802721Y7122403D01*
X67802718Y7122405D01*
X67466473Y7293730D01*
X67466452Y7293740D01*
X67114147Y7428977D01*
X67114136Y7428981D01*
X66749622Y7526651D01*
X66749605Y7526655D01*
X66376869Y7585691D01*
X66376855Y7585692D01*
X66000005Y7605441D01*
X65999995Y7605441D01*
X65623144Y7585692D01*
X65623130Y7585691D01*
X65250394Y7526655D01*
X65250377Y7526651D01*
X64885863Y7428981D01*
X64885852Y7428977D01*
X64533547Y7293740D01*
X64533526Y7293730D01*
X64197281Y7122405D01*
X64197274Y7122401D01*
X63880772Y6916862D01*
X63587488Y6679365D01*
X63320635Y6412512D01*
X63083138Y6119228D01*
X62877599Y5802726D01*
X62877595Y5802719D01*
X62706270Y5466474D01*
X62706260Y5466453D01*
X62571023Y5114148D01*
X62571019Y5114137D01*
X62473349Y4749623D01*
X62473345Y4749606D01*
X62414309Y4376870D01*
X62414308Y4376856D01*
X62394559Y4000006D01*
X62394559Y3999995D01*
X57167240Y3999995D01*
X57265357Y4112300D01*
X57380761Y4305452D01*
X57459823Y4516112D01*
X57500000Y4737498D01*
X57500000Y4800000D01*
X56712383Y4800000D01*
X56750000Y4928111D01*
X56750000Y5071889D01*
X56712383Y5200000D01*
X57500000Y5200000D01*
X57500000Y5206130D01*
X57484883Y5374092D01*
X57484882Y5374098D01*
X57425022Y5590996D01*
X57327397Y5793717D01*
X57195142Y5975749D01*
X57032518Y6131234D01*
X57032503Y6131246D01*
X56844728Y6255194D01*
X56844727Y6255195D01*
X56637830Y6343626D01*
X56450000Y6386498D01*
X56450000Y5458336D01*
X56392315Y5484680D01*
X56285763Y5500000D01*
X56214237Y5500000D01*
X56107685Y5484680D01*
X56050000Y5458336D01*
X56050000Y6384324D01*
X55970726Y6373585D01*
X55970713Y6373582D01*
X55756736Y6304058D01*
X55558592Y6197431D01*
X55382682Y6057148D01*
X55288298Y5949116D01*
X55216649Y5897060D01*
X55129509Y5881246D01*
X55044137Y5904808D01*
X54977443Y5963077D01*
X54955799Y6001024D01*
X54951745Y6010392D01*
X54951744Y6010398D01*
X54924096Y6057148D01*
X54868082Y6151864D01*
X54751863Y6268083D01*
X54610399Y6351744D01*
X54452569Y6397598D01*
X54415694Y6400500D01*
X53084306Y6400500D01*
X53059722Y6398566D01*
X53047430Y6397598D01*
X52889600Y6351744D01*
X52748136Y6268083D01*
X52631917Y6151864D01*
X52548256Y6010400D01*
X52502402Y5852570D01*
X52499500Y5815692D01*
X52499500Y4184308D01*
X46830500Y4184308D01*
X46830500Y4496784D01*
X46827766Y4537100D01*
X46784433Y4711349D01*
X46704653Y4872210D01*
X46642288Y4949796D01*
X46592159Y5012160D01*
X46498927Y5087101D01*
X46452210Y5124653D01*
X46291349Y5204433D01*
X46291347Y5204434D01*
X46291346Y5204434D01*
X46117100Y5247766D01*
X46076785Y5250500D01*
X46076784Y5250500D01*
X45083216Y5250500D01*
X45083215Y5250500D01*
X45042899Y5247766D01*
X44868653Y5204434D01*
X44707791Y5124654D01*
X44707790Y5124653D01*
X44567840Y5012160D01*
X44455347Y4872210D01*
X44455346Y4872209D01*
X44442976Y4847267D01*
X44397218Y4755006D01*
X44341202Y4686411D01*
X44260968Y4648914D01*
X44172411Y4649941D01*
X44093069Y4689291D01*
X44055929Y4729284D01*
X44001601Y4806873D01*
X44001599Y4806875D01*
X44001598Y4806877D01*
X43846877Y4961598D01*
X43846876Y4961599D01*
X43846875Y4961600D01*
X43667642Y5087101D01*
X43667638Y5087103D01*
X43469335Y5179573D01*
X43469328Y5179576D01*
X43257979Y5236207D01*
X43257972Y5236208D01*
X43040000Y5255277D01*
X42822027Y5236208D01*
X42822020Y5236207D01*
X42610671Y5179576D01*
X42610665Y5179574D01*
X42412364Y5087104D01*
X42233127Y4961602D01*
X42233119Y4961595D01*
X42078405Y4806881D01*
X42078398Y4806873D01*
X41952898Y4627638D01*
X41950355Y4622184D01*
X41896004Y4552260D01*
X41816696Y4512842D01*
X41728140Y4511739D01*
X41647874Y4549167D01*
X41591797Y4617715D01*
X41589645Y4622184D01*
X41587102Y4627638D01*
X41461598Y4806877D01*
X41306877Y4961598D01*
X41306876Y4961599D01*
X41306875Y4961600D01*
X41127642Y5087101D01*
X41127638Y5087103D01*
X40929335Y5179573D01*
X40929328Y5179576D01*
X40717979Y5236207D01*
X40717972Y5236208D01*
X40500000Y5255277D01*
X40282027Y5236208D01*
X40282020Y5236207D01*
X40070671Y5179576D01*
X40070665Y5179574D01*
X39872364Y5087104D01*
X39693127Y4961602D01*
X39693119Y4961595D01*
X39538405Y4806881D01*
X39538398Y4806873D01*
X39412896Y4627636D01*
X39320426Y4429335D01*
X39320424Y4429329D01*
X39263793Y4217980D01*
X39263792Y4217973D01*
X39244723Y4000000D01*
X23027598Y4000000D01*
X22977641Y4098046D01*
X22888045Y4187642D01*
X22775150Y4245165D01*
X22760255Y4250004D01*
X22760945Y4252130D01*
X22698171Y4277312D01*
X22638421Y4342683D01*
X22612952Y4427505D01*
X22626807Y4514978D01*
X22670786Y4581601D01*
X22750047Y4660861D01*
X22880568Y4847266D01*
X22976739Y5053504D01*
X22981666Y5071889D01*
X23035632Y5273296D01*
X23035632Y5273299D01*
X23035635Y5273308D01*
X23055468Y5500000D01*
X23035635Y5726692D01*
X23035632Y5726705D01*
X22976741Y5946491D01*
X22963098Y5975749D01*
X22880568Y6152734D01*
X22750047Y6339139D01*
X22589139Y6500047D01*
X22402734Y6630568D01*
X22196496Y6726739D01*
X22196497Y6726739D01*
X22196490Y6726742D01*
X21976704Y6785633D01*
X21976692Y6785635D01*
X21750000Y6805468D01*
X21523307Y6785635D01*
X21523295Y6785633D01*
X21303509Y6726742D01*
X21097266Y6630568D01*
X20910858Y6500045D01*
X20749955Y6339142D01*
X20619432Y6152734D01*
X20523258Y5946491D01*
X20464367Y5726705D01*
X20464365Y5726693D01*
X20444532Y5500000D01*
X14801968Y5500000D01*
X14805468Y5540000D01*
X14785635Y5766692D01*
X14775982Y5802719D01*
X14726741Y5986491D01*
X14693793Y6057148D01*
X14630568Y6192734D01*
X14500047Y6379139D01*
X14339139Y6540047D01*
X14152734Y6670568D01*
X13946496Y6766739D01*
X13946497Y6766739D01*
X13946490Y6766742D01*
X13726704Y6825633D01*
X13726692Y6825635D01*
X13500000Y6845468D01*
X13273307Y6825635D01*
X13273295Y6825633D01*
X13053509Y6766742D01*
X12847266Y6670568D01*
X12660858Y6540045D01*
X12499955Y6379142D01*
X12369432Y6192734D01*
X12273258Y5986491D01*
X12214367Y5766705D01*
X12214365Y5766693D01*
X12194532Y5540000D01*
X7256266Y5540000D01*
X7215282Y5620434D01*
X7122404Y5802719D01*
X7122400Y5802726D01*
X6916861Y6119228D01*
X6679364Y6412512D01*
X6412511Y6679365D01*
X6281278Y6785635D01*
X6119225Y6916863D01*
X5802721Y7122403D01*
X5802718Y7122405D01*
X5466473Y7293730D01*
X5466452Y7293740D01*
X5114147Y7428977D01*
X5114136Y7428981D01*
X4749622Y7526651D01*
X4749605Y7526655D01*
X4376869Y7585691D01*
X4376855Y7585692D01*
X4000005Y7605441D01*
X3999995Y7605441D01*
X3623144Y7585692D01*
X3623130Y7585691D01*
X3250394Y7526655D01*
X3250377Y7526651D01*
X2885863Y7428981D01*
X2885852Y7428977D01*
X2533547Y7293740D01*
X2533526Y7293730D01*
X2197281Y7122405D01*
X2197274Y7122401D01*
X1880772Y6916862D01*
X1587488Y6679365D01*
X1320635Y6412512D01*
X1083138Y6119228D01*
X877599Y5802726D01*
X877595Y5802719D01*
X706270Y5466474D01*
X706260Y5466453D01*
X571023Y5114148D01*
X571019Y5114137D01*
X473349Y4749623D01*
X473345Y4749606D01*
X414309Y4376870D01*
X414308Y4376856D01*
X398227Y4069997D01*
X379379Y4003643D01*
X15920Y4003643D01*
X500Y4080412D01*
X500Y12689999D01*
X13794357Y12689999D01*
X13803297Y12593516D01*
X13812135Y12498137D01*
X13814885Y12468465D01*
X13814885Y12468461D01*
X13856638Y12321717D01*
X13875771Y12254472D01*
X13930621Y12144319D01*
X13974941Y12055313D01*
X13974945Y12055306D01*
X14086594Y11907459D01*
X14109019Y11877764D01*
X14273438Y11727876D01*
X14462599Y11610753D01*
X14670060Y11530382D01*
X14888757Y11489500D01*
X14888759Y11489500D01*
X15111241Y11489500D01*
X15111243Y11489500D01*
X15329940Y11530382D01*
X15537401Y11610753D01*
X15726562Y11727876D01*
X15890981Y11877764D01*
X16025058Y12055311D01*
X16124229Y12254472D01*
X16185115Y12468464D01*
X16205643Y12689999D01*
X20794357Y12689999D01*
X20803297Y12593516D01*
X20812135Y12498137D01*
X20814885Y12468465D01*
X20814885Y12468461D01*
X20856638Y12321717D01*
X20875771Y12254472D01*
X20930621Y12144319D01*
X20974941Y12055313D01*
X20974945Y12055306D01*
X21086594Y11907459D01*
X21109019Y11877764D01*
X21273438Y11727876D01*
X21462599Y11610753D01*
X21670060Y11530382D01*
X21888757Y11489500D01*
X21888759Y11489500D01*
X22111241Y11489500D01*
X22111243Y11489500D01*
X22329940Y11530382D01*
X22537401Y11610753D01*
X22726562Y11727876D01*
X22890981Y11877764D01*
X23025058Y12055311D01*
X23124229Y12254472D01*
X23185115Y12468464D01*
X23205643Y12689999D01*
X27544357Y12689999D01*
X27553297Y12593516D01*
X27562135Y12498137D01*
X27564885Y12468465D01*
X27564885Y12468461D01*
X27606638Y12321717D01*
X27625771Y12254472D01*
X27680621Y12144319D01*
X27724941Y12055313D01*
X27724945Y12055306D01*
X27836594Y11907459D01*
X27859019Y11877764D01*
X28023438Y11727876D01*
X28130260Y11661735D01*
X28193295Y11599527D01*
X28223097Y11516128D01*
X28224500Y11492542D01*
X28224500Y11008984D01*
X28222339Y10945758D01*
X28222340Y10945755D01*
X28231852Y10906718D01*
X28233755Y10896706D01*
X28239228Y10856892D01*
X28239229Y10856889D01*
X28243310Y10847492D01*
X28254121Y10815343D01*
X28256542Y10805409D01*
X28256545Y10805402D01*
X28276233Y10770386D01*
X28280768Y10761256D01*
X28296781Y10724391D01*
X28303233Y10716461D01*
X28322329Y10688403D01*
X28327342Y10679488D01*
X28355765Y10651065D01*
X28362579Y10643515D01*
X28387946Y10612335D01*
X28396301Y10606438D01*
X28422256Y10584574D01*
X29740678Y9266153D01*
X29787797Y9191165D01*
X29797713Y9103158D01*
X29792184Y9073936D01*
X29763792Y8967976D01*
X29763792Y8967973D01*
X29744723Y8750000D01*
X29763792Y8532028D01*
X29763793Y8532021D01*
X29820424Y8320672D01*
X29820427Y8320665D01*
X29912897Y8122362D01*
X29912899Y8122358D01*
X30038403Y7943121D01*
X30193120Y7788404D01*
X30372357Y7662900D01*
X30372361Y7662898D01*
X30570670Y7570425D01*
X30782023Y7513793D01*
X31000000Y7494723D01*
X31217977Y7513793D01*
X31429330Y7570425D01*
X31627639Y7662898D01*
X31806877Y7788402D01*
X31961598Y7943123D01*
X32087102Y8122361D01*
X32179575Y8320670D01*
X32236207Y8532023D01*
X32255277Y8750000D01*
X34244723Y8750000D01*
X34263792Y8532028D01*
X34263793Y8532021D01*
X34320424Y8320672D01*
X34320427Y8320665D01*
X34412897Y8122362D01*
X34412899Y8122358D01*
X34538403Y7943121D01*
X34693120Y7788404D01*
X34872357Y7662900D01*
X34872361Y7662898D01*
X35070670Y7570425D01*
X35282023Y7513793D01*
X35500000Y7494723D01*
X35717977Y7513793D01*
X35929330Y7570425D01*
X36127639Y7662898D01*
X36306877Y7788402D01*
X36461598Y7943123D01*
X36587102Y8122361D01*
X36679575Y8320670D01*
X36736207Y8532023D01*
X36755277Y8750000D01*
X36736207Y8967977D01*
X36679575Y9179330D01*
X36674056Y9191165D01*
X36587103Y9377636D01*
X36461601Y9556873D01*
X36461599Y9556875D01*
X36461598Y9556877D01*
X36306877Y9711598D01*
X36306876Y9711599D01*
X36306875Y9711600D01*
X36127642Y9837101D01*
X36127638Y9837103D01*
X35929335Y9929573D01*
X35929328Y9929576D01*
X35717979Y9986207D01*
X35717972Y9986208D01*
X35500000Y10005277D01*
X35282027Y9986208D01*
X35282020Y9986207D01*
X35070671Y9929576D01*
X35070665Y9929574D01*
X34872364Y9837104D01*
X34693127Y9711602D01*
X34693119Y9711595D01*
X34538405Y9556881D01*
X34538398Y9556873D01*
X34412896Y9377636D01*
X34320426Y9179335D01*
X34320424Y9179329D01*
X34263793Y8967980D01*
X34263792Y8967973D01*
X34244723Y8750000D01*
X32255277Y8750000D01*
X32236207Y8967977D01*
X32179575Y9179330D01*
X32174056Y9191165D01*
X32087103Y9377636D01*
X31961601Y9556873D01*
X31961599Y9556875D01*
X31961598Y9556877D01*
X31806877Y9711598D01*
X31806876Y9711599D01*
X31806875Y9711600D01*
X31627642Y9837101D01*
X31627638Y9837103D01*
X31429335Y9929573D01*
X31429328Y9929576D01*
X31217979Y9986207D01*
X31217972Y9986208D01*
X31000000Y10005277D01*
X30782027Y9986208D01*
X30782024Y9986208D01*
X30676064Y9957816D01*
X30587563Y9954506D01*
X30506389Y9989922D01*
X30483847Y10009322D01*
X29333786Y11159383D01*
X29286667Y11234371D01*
X29275500Y11300097D01*
X29275500Y11492542D01*
X29295207Y11578885D01*
X29350426Y11648126D01*
X29369735Y11661733D01*
X29476562Y11727876D01*
X29640981Y11877764D01*
X29775058Y12055311D01*
X29874229Y12254472D01*
X29935115Y12468464D01*
X29955643Y12690000D01*
X29935115Y12911536D01*
X29874229Y13125528D01*
X29775058Y13324689D01*
X29775055Y13324693D01*
X29775054Y13324695D01*
X29640984Y13502232D01*
X29640981Y13502236D01*
X29476562Y13652124D01*
X29287401Y13769247D01*
X29079940Y13849618D01*
X28861243Y13890500D01*
X28638757Y13890500D01*
X28420060Y13849618D01*
X28212599Y13769247D01*
X28212598Y13769247D01*
X28212597Y13769246D01*
X28212595Y13769245D01*
X28023442Y13652127D01*
X28023440Y13652126D01*
X28023438Y13652124D01*
X27862290Y13505218D01*
X27859015Y13502232D01*
X27724945Y13324695D01*
X27724941Y13324688D01*
X27625773Y13125532D01*
X27625770Y13125526D01*
X27564885Y12911540D01*
X27564885Y12911536D01*
X27544357Y12690002D01*
X27544357Y12689999D01*
X23205643Y12689999D01*
X23205643Y12690000D01*
X23185115Y12911536D01*
X23124229Y13125528D01*
X23025058Y13324689D01*
X23025055Y13324693D01*
X23025054Y13324695D01*
X22890984Y13502232D01*
X22890981Y13502236D01*
X22726562Y13652124D01*
X22537401Y13769247D01*
X22329940Y13849618D01*
X22111243Y13890500D01*
X21888757Y13890500D01*
X21670060Y13849618D01*
X21462599Y13769247D01*
X21462598Y13769247D01*
X21462597Y13769246D01*
X21462595Y13769245D01*
X21273442Y13652127D01*
X21273440Y13652126D01*
X21273438Y13652124D01*
X21112290Y13505218D01*
X21109015Y13502232D01*
X20974945Y13324695D01*
X20974941Y13324688D01*
X20875773Y13125532D01*
X20875770Y13125526D01*
X20814885Y12911540D01*
X20814885Y12911536D01*
X20794357Y12690002D01*
X20794357Y12689999D01*
X16205643Y12689999D01*
X16205643Y12690000D01*
X16185115Y12911536D01*
X16124229Y13125528D01*
X16025058Y13324689D01*
X16025055Y13324693D01*
X16025054Y13324695D01*
X15890984Y13502232D01*
X15890981Y13502236D01*
X15726562Y13652124D01*
X15537401Y13769247D01*
X15329940Y13849618D01*
X15111243Y13890500D01*
X14888757Y13890500D01*
X14670060Y13849618D01*
X14462599Y13769247D01*
X14462598Y13769247D01*
X14462597Y13769246D01*
X14462595Y13769245D01*
X14273442Y13652127D01*
X14273440Y13652126D01*
X14273438Y13652124D01*
X14112290Y13505218D01*
X14109015Y13502232D01*
X13974945Y13324695D01*
X13974941Y13324688D01*
X13875773Y13125532D01*
X13875770Y13125526D01*
X13814885Y12911540D01*
X13814885Y12911536D01*
X13794357Y12690002D01*
X13794357Y12689999D01*
X500Y12689999D01*
X500Y13980000D01*
X8344723Y13980000D01*
X8363792Y13762028D01*
X8363793Y13762021D01*
X8420424Y13550672D01*
X8420427Y13550665D01*
X8512897Y13352362D01*
X8512899Y13352358D01*
X8638403Y13173121D01*
X8793120Y13018404D01*
X8972357Y12892900D01*
X8972361Y12892898D01*
X9170670Y12800425D01*
X9382023Y12743793D01*
X9600000Y12724723D01*
X9817977Y12743793D01*
X10029330Y12800425D01*
X10227639Y12892898D01*
X10406877Y13018402D01*
X10561598Y13173123D01*
X10687102Y13352361D01*
X10779575Y13550670D01*
X10836207Y13762023D01*
X10855277Y13980000D01*
X10836207Y14197977D01*
X10779575Y14409330D01*
X10768592Y14432882D01*
X10687103Y14607636D01*
X10679789Y14618081D01*
X10589101Y14747598D01*
X10561601Y14786873D01*
X10561599Y14786875D01*
X10561598Y14786877D01*
X10406877Y14941598D01*
X10406876Y14941599D01*
X10406875Y14941600D01*
X10227642Y15067101D01*
X10227638Y15067103D01*
X10222190Y15069643D01*
X10152264Y15123992D01*
X10112844Y15203298D01*
X10111737Y15291855D01*
X10149164Y15372121D01*
X10217710Y15428200D01*
X10222190Y15430357D01*
X10223069Y15430768D01*
X10227639Y15432898D01*
X10406877Y15558402D01*
X10561598Y15713123D01*
X10687102Y15892361D01*
X10779575Y16090670D01*
X10836207Y16302023D01*
X10855277Y16520000D01*
X10836207Y16737977D01*
X10779575Y16949330D01*
X10748785Y17015358D01*
X10687103Y17147636D01*
X10656263Y17191680D01*
X10574633Y17308261D01*
X10561601Y17326873D01*
X10561599Y17326875D01*
X10561598Y17326877D01*
X10406877Y17481598D01*
X10406876Y17481599D01*
X10406875Y17481600D01*
X10227642Y17607101D01*
X10227638Y17607103D01*
X10222190Y17609643D01*
X10152264Y17663992D01*
X10112844Y17743298D01*
X10111737Y17831855D01*
X10149164Y17912121D01*
X10217710Y17968200D01*
X10222190Y17970357D01*
X10223069Y17970768D01*
X10227639Y17972898D01*
X10406877Y18098402D01*
X10561598Y18253123D01*
X10687102Y18432361D01*
X10779575Y18630670D01*
X10836207Y18842023D01*
X10855277Y19060000D01*
X10836207Y19277977D01*
X10779575Y19489330D01*
X10730426Y19594729D01*
X10687103Y19687636D01*
X10684432Y19691450D01*
X10561598Y19866877D01*
X10406877Y20021598D01*
X10406876Y20021599D01*
X10406875Y20021600D01*
X10227642Y20147101D01*
X10227638Y20147103D01*
X10222190Y20149643D01*
X10152264Y20203992D01*
X10112844Y20283298D01*
X10112510Y20309999D01*
X13794357Y20309999D01*
X13802958Y20217179D01*
X13809451Y20147102D01*
X13814885Y20088465D01*
X13814885Y20088461D01*
X13872895Y19884579D01*
X13875771Y19874472D01*
X13921566Y19782504D01*
X13974941Y19675313D01*
X13974945Y19675306D01*
X14095425Y19515765D01*
X14109019Y19497764D01*
X14273438Y19347876D01*
X14462599Y19230753D01*
X14670060Y19150382D01*
X14888757Y19109500D01*
X14888759Y19109500D01*
X15111241Y19109500D01*
X15111243Y19109500D01*
X15329940Y19150382D01*
X15537401Y19230753D01*
X15726562Y19347876D01*
X15890981Y19497764D01*
X16025058Y19675311D01*
X16124229Y19874472D01*
X16185115Y20088464D01*
X16205487Y20308319D01*
X16205643Y20309999D01*
X20794357Y20309999D01*
X20802958Y20217179D01*
X20809451Y20147102D01*
X20814885Y20088465D01*
X20814885Y20088461D01*
X20872895Y19884579D01*
X20875771Y19874472D01*
X20921566Y19782504D01*
X20974941Y19675313D01*
X20974945Y19675306D01*
X21095425Y19515765D01*
X21109019Y19497764D01*
X21273438Y19347876D01*
X21462599Y19230753D01*
X21670060Y19150382D01*
X21888757Y19109500D01*
X21888759Y19109500D01*
X22111241Y19109500D01*
X22111243Y19109500D01*
X22329940Y19150382D01*
X22537401Y19230753D01*
X22726562Y19347876D01*
X22890981Y19497764D01*
X23025058Y19675311D01*
X23124229Y19874472D01*
X23185115Y20088464D01*
X23205487Y20308319D01*
X23205643Y20309999D01*
X27544357Y20309999D01*
X27552958Y20217179D01*
X27559451Y20147102D01*
X27564885Y20088465D01*
X27564885Y20088461D01*
X27622895Y19884579D01*
X27625771Y19874472D01*
X27671566Y19782504D01*
X27724941Y19675313D01*
X27724945Y19675306D01*
X27845425Y19515765D01*
X27859019Y19497764D01*
X28023438Y19347876D01*
X28055260Y19328173D01*
X28118294Y19265968D01*
X28148097Y19182570D01*
X28149500Y19158981D01*
X28149500Y18295894D01*
X28148648Y18282894D01*
X28144318Y18250000D01*
X28148187Y18220613D01*
X28162484Y18112013D01*
X28164956Y18093239D01*
X28164957Y18093235D01*
X28225463Y17947160D01*
X28225464Y17947157D01*
X28310225Y17836696D01*
X28321718Y17821718D01*
X28348044Y17801518D01*
X28357835Y17792930D01*
X34292939Y11857826D01*
X34301514Y11848048D01*
X34321718Y11821718D01*
X34387117Y11771536D01*
X34435826Y11734160D01*
X34447160Y11725463D01*
X34510867Y11699075D01*
X34593238Y11664956D01*
X34750000Y11644318D01*
X34771384Y11647134D01*
X34782893Y11648648D01*
X34795893Y11649500D01*
X40204107Y11649500D01*
X40217107Y11648648D01*
X40229873Y11646968D01*
X40250000Y11644318D01*
X40406762Y11664956D01*
X40552841Y11725464D01*
X40612883Y11771536D01*
X40678282Y11821718D01*
X40698486Y11848050D01*
X40707053Y11857820D01*
X40875130Y12025896D01*
X40950116Y12073012D01*
X41038123Y12082928D01*
X41121716Y12053677D01*
X41184339Y11991053D01*
X41213590Y11907459D01*
X41207245Y11830721D01*
X41190379Y11771444D01*
X41190378Y11771440D01*
X41169859Y11550001D01*
X41169859Y11550000D01*
X41190378Y11328561D01*
X41190379Y11328558D01*
X41251240Y11114649D01*
X41350365Y10915579D01*
X41350368Y10915574D01*
X41396560Y10854405D01*
X41986713Y11444558D01*
X41989835Y11424852D01*
X42047359Y11311955D01*
X42136955Y11222359D01*
X42249852Y11164835D01*
X42269556Y11161715D01*
X41678001Y10570160D01*
X41837817Y10471205D01*
X42045195Y10390865D01*
X42263807Y10350000D01*
X42486192Y10350000D01*
X42704804Y10390865D01*
X42912180Y10471204D01*
X43071998Y10570159D01*
X43071998Y10570160D01*
X42480443Y11161715D01*
X42500148Y11164835D01*
X42613045Y11222359D01*
X42702641Y11311955D01*
X42760165Y11424852D01*
X42763285Y11444557D01*
X43353437Y10854405D01*
X43399633Y10915578D01*
X43498759Y11114649D01*
X43559620Y11328558D01*
X43559621Y11328561D01*
X43580141Y11550000D01*
X43580141Y11550001D01*
X43559621Y11771440D01*
X43559620Y11771443D01*
X43498761Y11985347D01*
X43399632Y12184424D01*
X43353437Y12245597D01*
X42763285Y11655445D01*
X42760165Y11675148D01*
X42702641Y11788045D01*
X42613045Y11877641D01*
X42500148Y11935165D01*
X42480442Y11938286D01*
X43071998Y12529842D01*
X43071997Y12529843D01*
X43069633Y12531307D01*
X43006597Y12593516D01*
X42976796Y12676914D01*
X42986131Y12764984D01*
X43032753Y12840282D01*
X43107429Y12887895D01*
X43174393Y12899500D01*
X46574659Y12899500D01*
X46661002Y12879793D01*
X46730243Y12824574D01*
X46768670Y12744782D01*
X46768670Y12656218D01*
X46730243Y12576426D01*
X46679420Y12531308D01*
X46648438Y12512124D01*
X46484019Y12362236D01*
X46484015Y12362232D01*
X46349945Y12184695D01*
X46349941Y12184688D01*
X46250773Y11985532D01*
X46250770Y11985526D01*
X46189885Y11771540D01*
X46189885Y11771537D01*
X46169357Y11550002D01*
X46169357Y11549999D01*
X46189885Y11328465D01*
X46189885Y11328461D01*
X46250770Y11114475D01*
X46250771Y11114472D01*
X46303298Y11008984D01*
X46349941Y10915313D01*
X46349945Y10915306D01*
X46484015Y10737769D01*
X46484019Y10737764D01*
X46648438Y10587876D01*
X46837599Y10470753D01*
X47045060Y10390382D01*
X47263757Y10349500D01*
X47263759Y10349500D01*
X47486241Y10349500D01*
X47486243Y10349500D01*
X47704940Y10390382D01*
X47912401Y10470753D01*
X48101562Y10587876D01*
X48265981Y10737764D01*
X48400058Y10915311D01*
X48499229Y11114472D01*
X48560115Y11328464D01*
X48580643Y11550000D01*
X48577966Y11578885D01*
X48560115Y11771537D01*
X48560114Y11771540D01*
X48542672Y11832843D01*
X48499229Y11985528D01*
X48400058Y12184689D01*
X48400055Y12184693D01*
X48400054Y12184695D01*
X48265984Y12362232D01*
X48265981Y12362236D01*
X48101562Y12512124D01*
X48070579Y12531308D01*
X48007545Y12593516D01*
X47977744Y12676915D01*
X47987079Y12764985D01*
X48033702Y12840283D01*
X48108378Y12887895D01*
X48175341Y12899500D01*
X53448335Y12899500D01*
X53534678Y12879793D01*
X53603919Y12824574D01*
X53639433Y12756020D01*
X53673256Y12639601D01*
X53756917Y12498137D01*
X53873136Y12381918D01*
X53974931Y12321717D01*
X54014602Y12298256D01*
X54172431Y12252402D01*
X54209306Y12249500D01*
X55352206Y12249500D01*
X55438549Y12229793D01*
X55445219Y12226268D01*
X55447157Y12225465D01*
X55447159Y12225464D01*
X55593238Y12164956D01*
X55750000Y12144318D01*
X55771384Y12147134D01*
X55782893Y12148648D01*
X55795893Y12149500D01*
X65954107Y12149500D01*
X65967107Y12148648D01*
X65979873Y12146968D01*
X66000000Y12144318D01*
X66156762Y12164956D01*
X66302841Y12225464D01*
X66368426Y12275789D01*
X66428282Y12321718D01*
X66448486Y12348050D01*
X66457060Y12357827D01*
X68392173Y14292940D01*
X68401950Y14301514D01*
X68428282Y14321718D01*
X68524536Y14447159D01*
X68585044Y14593238D01*
X68600500Y14710639D01*
X68605682Y14750000D01*
X68601352Y14782894D01*
X68600500Y14795894D01*
X68600500Y28454107D01*
X68601351Y28467099D01*
X68605683Y28500000D01*
X68605683Y28500001D01*
X68605683Y28500004D01*
X68585044Y28656760D01*
X68585044Y28656762D01*
X68524536Y28802841D01*
X68524535Y28802844D01*
X68428281Y28928283D01*
X68423388Y28932038D01*
X68401952Y28948486D01*
X68392174Y28957061D01*
X62957070Y34392165D01*
X62948482Y34401956D01*
X62928282Y34428282D01*
X62802843Y34524536D01*
X62802840Y34524537D01*
X62656764Y34585043D01*
X62656766Y34585043D01*
X62656762Y34585044D01*
X62656760Y34585045D01*
X62656755Y34585046D01*
X62539362Y34600500D01*
X62519680Y34603091D01*
X62500000Y34605682D01*
X62499999Y34605682D01*
X62467107Y34601352D01*
X62454107Y34600500D01*
X59149967Y34600500D01*
X59063624Y34620207D01*
X58994383Y34675426D01*
X58991162Y34679575D01*
X58890982Y34812235D01*
X58890981Y34812236D01*
X58726562Y34962124D01*
X58537401Y35079247D01*
X58329940Y35159618D01*
X58111243Y35200500D01*
X57888757Y35200500D01*
X57670060Y35159618D01*
X57462599Y35079247D01*
X57462598Y35079247D01*
X57462597Y35079246D01*
X57462595Y35079245D01*
X57273442Y34962127D01*
X57273440Y34962126D01*
X57273438Y34962124D01*
X57235609Y34927638D01*
X57109015Y34812232D01*
X56974945Y34634695D01*
X56974941Y34634688D01*
X56875773Y34435532D01*
X56875770Y34435526D01*
X56814885Y34221540D01*
X56814885Y34221536D01*
X56794357Y34000002D01*
X56794357Y33999999D01*
X56815734Y33769303D01*
X56812981Y33769048D01*
X56810105Y33696717D01*
X56768539Y33618514D01*
X56758721Y33607958D01*
X52585638Y29434875D01*
X52510650Y29387756D01*
X52422643Y29377840D01*
X52339050Y29407091D01*
X52276426Y29469715D01*
X52247175Y29553308D01*
X52246686Y29558189D01*
X52236207Y29677977D01*
X52179575Y29889330D01*
X52115436Y30026875D01*
X52087103Y30087636D01*
X52025914Y30175023D01*
X51961598Y30266877D01*
X51806877Y30421598D01*
X51806876Y30421599D01*
X51806875Y30421600D01*
X51627642Y30547101D01*
X51627638Y30547103D01*
X51622190Y30549643D01*
X51552264Y30603992D01*
X51512844Y30683298D01*
X51511737Y30771855D01*
X51549164Y30852121D01*
X51617710Y30908200D01*
X51622190Y30910357D01*
X51623069Y30910768D01*
X51627639Y30912898D01*
X51806877Y31038402D01*
X51961598Y31193123D01*
X52087102Y31372361D01*
X52179575Y31570670D01*
X52236207Y31782023D01*
X52255277Y32000000D01*
X52236207Y32217977D01*
X52179575Y32429330D01*
X52115436Y32566875D01*
X52087103Y32627636D01*
X51961601Y32806873D01*
X51961599Y32806875D01*
X51961598Y32806877D01*
X51806877Y32961598D01*
X51806876Y32961599D01*
X51806875Y32961600D01*
X51627642Y33087101D01*
X51627638Y33087103D01*
X51622190Y33089643D01*
X51552264Y33143992D01*
X51512844Y33223298D01*
X51511737Y33311855D01*
X51549164Y33392121D01*
X51617710Y33448200D01*
X51622190Y33450357D01*
X51623069Y33450768D01*
X51627639Y33452898D01*
X51806877Y33578402D01*
X51961598Y33733123D01*
X52087102Y33912361D01*
X52179575Y34110670D01*
X52236207Y34322023D01*
X52255277Y34540000D01*
X52236207Y34757977D01*
X52179575Y34969330D01*
X52115436Y35106875D01*
X52087103Y35167636D01*
X51961601Y35346873D01*
X51961599Y35346875D01*
X51961598Y35346877D01*
X51806877Y35501598D01*
X51806876Y35501599D01*
X51806875Y35501600D01*
X51627642Y35627101D01*
X51627638Y35627103D01*
X51622190Y35629643D01*
X51552264Y35683992D01*
X51512844Y35763298D01*
X51511737Y35851855D01*
X51549164Y35932121D01*
X51617710Y35988200D01*
X51622190Y35990357D01*
X51623069Y35990768D01*
X51627639Y35992898D01*
X51806877Y36118402D01*
X51961598Y36273123D01*
X52087102Y36452361D01*
X52179575Y36650670D01*
X52236207Y36862023D01*
X52255277Y37080000D01*
X52236207Y37297977D01*
X52179575Y37509330D01*
X52115436Y37646875D01*
X52087103Y37707636D01*
X51961601Y37886873D01*
X51961599Y37886875D01*
X51961598Y37886877D01*
X51806877Y38041598D01*
X51806876Y38041599D01*
X51806875Y38041600D01*
X51627642Y38167101D01*
X51627638Y38167103D01*
X51622190Y38169643D01*
X51552264Y38223992D01*
X51512844Y38303298D01*
X51511737Y38391855D01*
X51549164Y38472121D01*
X51617710Y38528200D01*
X51622190Y38530357D01*
X51623069Y38530768D01*
X51627639Y38532898D01*
X51806877Y38658402D01*
X51961598Y38813123D01*
X52087102Y38992361D01*
X52179575Y39190670D01*
X52236207Y39402023D01*
X52255277Y39620000D01*
X52236207Y39837977D01*
X52179575Y40049330D01*
X52150344Y40112015D01*
X52087103Y40247636D01*
X51961601Y40426873D01*
X51961599Y40426875D01*
X51961598Y40426877D01*
X51944805Y40443670D01*
X63595710Y40443670D01*
X63625925Y40220613D01*
X63625926Y40220609D01*
X63625927Y40220606D01*
X63695485Y40006530D01*
X63795915Y39819902D01*
X63801604Y39809329D01*
X63802147Y39808321D01*
X63802149Y39808318D01*
X63942489Y39632337D01*
X63942491Y39632336D01*
X63942492Y39632334D01*
X63981813Y39597980D01*
X64050375Y39538079D01*
X64102431Y39466429D01*
X64118245Y39379289D01*
X64094683Y39293918D01*
X64036414Y39227223D01*
X63998476Y39205584D01*
X63989600Y39201744D01*
X63848136Y39118083D01*
X63731917Y39001864D01*
X63648256Y38860400D01*
X63602402Y38702570D01*
X63599500Y38665692D01*
X63599500Y37334308D01*
X63602402Y37297431D01*
X63648256Y37139601D01*
X63731917Y36998137D01*
X63848136Y36881918D01*
X63919016Y36840000D01*
X63989602Y36798256D01*
X64147431Y36752402D01*
X64184306Y36749500D01*
X64184308Y36749500D01*
X65815692Y36749500D01*
X65815694Y36749500D01*
X65852569Y36752402D01*
X66010398Y36798256D01*
X66151865Y36881919D01*
X66268081Y36998135D01*
X66351744Y37139602D01*
X66397598Y37297431D01*
X66400500Y37334306D01*
X66400500Y38665694D01*
X66397598Y38702569D01*
X66351744Y38860398D01*
X66330798Y38895816D01*
X66268082Y39001864D01*
X66151863Y39118083D01*
X66010399Y39201744D01*
X66004810Y39204162D01*
X65933395Y39256539D01*
X65891777Y39334714D01*
X65888200Y39423206D01*
X65923372Y39504485D01*
X65966873Y39547791D01*
X65976078Y39554478D01*
X66131632Y39717175D01*
X66255635Y39905032D01*
X66344103Y40112012D01*
X66394191Y40331463D01*
X66404290Y40556330D01*
X66374075Y40779387D01*
X66304517Y40993464D01*
X66304515Y40993468D01*
X66304514Y40993471D01*
X66222436Y41145996D01*
X66197852Y41191681D01*
X66117561Y41292362D01*
X66057510Y41367664D01*
X65887997Y41515765D01*
X65887992Y41515768D01*
X65694761Y41631217D01*
X65694759Y41631218D01*
X65484026Y41710307D01*
X65262547Y41750500D01*
X64793845Y41750500D01*
X64738855Y41745551D01*
X64625819Y41735378D01*
X64625814Y41735378D01*
X64625812Y41735377D01*
X64625809Y41735377D01*
X64625802Y41735375D01*
X64408831Y41675494D01*
X64206024Y41577828D01*
X64023920Y41445521D01*
X63868373Y41282832D01*
X63868365Y41282822D01*
X63744366Y41094972D01*
X63655896Y40887986D01*
X63605808Y40668535D01*
X63597975Y40494107D01*
X63595710Y40443670D01*
X51944805Y40443670D01*
X51806877Y40581598D01*
X51806876Y40581599D01*
X51806875Y40581600D01*
X51627642Y40707100D01*
X51627641Y40707101D01*
X51627639Y40707102D01*
X51621586Y40709925D01*
X51551664Y40764277D01*
X51512249Y40843586D01*
X51511148Y40932143D01*
X51548579Y41012407D01*
X51617128Y41068482D01*
X51621608Y41070639D01*
X51627393Y41073337D01*
X51731160Y41145996D01*
X51731160Y41145997D01*
X51183176Y41693982D01*
X51273100Y41735048D01*
X51381761Y41829202D01*
X51459493Y41950156D01*
X51467027Y41975816D01*
X52014003Y41428840D01*
X52014004Y41428840D01*
X52086665Y41532609D01*
X52086667Y41532612D01*
X52179104Y41730847D01*
X52179105Y41730849D01*
X52235710Y41942105D01*
X52254774Y42160000D01*
X52235710Y42377896D01*
X52179104Y42589155D01*
X52179104Y42589156D01*
X52086670Y42787381D01*
X52086669Y42787383D01*
X52014002Y42891161D01*
X51467027Y42344186D01*
X51459493Y42369844D01*
X51381761Y42490798D01*
X51273100Y42584952D01*
X51183176Y42626019D01*
X51731161Y43174004D01*
X51731160Y43174005D01*
X51627388Y43246667D01*
X51627387Y43246668D01*
X51429153Y43339105D01*
X51429151Y43339106D01*
X51217895Y43395711D01*
X51000000Y43414775D01*
X50782104Y43395711D01*
X50570845Y43339105D01*
X50570844Y43339105D01*
X50372614Y43246668D01*
X50372613Y43246668D01*
X50268839Y43174005D01*
X50268839Y43174004D01*
X50816823Y42626020D01*
X50726900Y42584952D01*
X50618239Y42490798D01*
X50540507Y42369844D01*
X50532972Y42344185D01*
X49985996Y42891161D01*
X49985995Y42891161D01*
X49913332Y42787387D01*
X49913332Y42787386D01*
X49820895Y42589156D01*
X49820895Y42589155D01*
X49764289Y42377896D01*
X49745225Y42160000D01*
X49764289Y41942105D01*
X49820894Y41730849D01*
X49820895Y41730847D01*
X49913332Y41532613D01*
X49913333Y41532612D01*
X49985995Y41428840D01*
X49985996Y41428839D01*
X50532972Y41975816D01*
X50540507Y41950156D01*
X50618239Y41829202D01*
X50726900Y41735048D01*
X50816823Y41693981D01*
X50268838Y41145997D01*
X50268838Y41145996D01*
X50372607Y41073337D01*
X50378397Y41070637D01*
X50448324Y41016290D01*
X50487747Y40936985D01*
X50488856Y40848429D01*
X50451432Y40768161D01*
X50382888Y40712080D01*
X50378418Y40709927D01*
X50372367Y40707106D01*
X50372364Y40707104D01*
X50193127Y40581602D01*
X50193119Y40581595D01*
X50038405Y40426881D01*
X50038398Y40426873D01*
X49912896Y40247636D01*
X49820426Y40049335D01*
X49820424Y40049329D01*
X49763793Y39837980D01*
X49763792Y39837973D01*
X49744723Y39620000D01*
X49763792Y39402028D01*
X49763793Y39402021D01*
X49820424Y39190672D01*
X49820427Y39190665D01*
X49912897Y38992362D01*
X49912899Y38992358D01*
X50038403Y38813121D01*
X50193120Y38658404D01*
X50372357Y38532900D01*
X50372360Y38532899D01*
X50372361Y38532898D01*
X50377815Y38530355D01*
X50447739Y38476004D01*
X50487157Y38396696D01*
X50488260Y38308140D01*
X50450832Y38227874D01*
X50382284Y38171797D01*
X50377820Y38169647D01*
X50372362Y38167102D01*
X50193127Y38041602D01*
X50193119Y38041595D01*
X50038405Y37886881D01*
X50038398Y37886873D01*
X49912896Y37707636D01*
X49820426Y37509335D01*
X49820424Y37509329D01*
X49763793Y37297980D01*
X49763792Y37297973D01*
X49744723Y37080000D01*
X49763792Y36862028D01*
X49763793Y36862021D01*
X49820424Y36650672D01*
X49820427Y36650665D01*
X49912897Y36452362D01*
X49912899Y36452358D01*
X50038403Y36273121D01*
X50193120Y36118404D01*
X50372357Y35992900D01*
X50372360Y35992899D01*
X50372361Y35992898D01*
X50377815Y35990355D01*
X50447739Y35936004D01*
X50487157Y35856696D01*
X50488260Y35768140D01*
X50450832Y35687874D01*
X50382284Y35631797D01*
X50377820Y35629647D01*
X50372362Y35627102D01*
X50193127Y35501602D01*
X50193119Y35501595D01*
X50038405Y35346881D01*
X50038398Y35346873D01*
X49912896Y35167636D01*
X49820426Y34969335D01*
X49820424Y34969329D01*
X49763793Y34757980D01*
X49763792Y34757973D01*
X49744723Y34540000D01*
X49763792Y34322028D01*
X49763793Y34322021D01*
X49820424Y34110672D01*
X49820427Y34110665D01*
X49912897Y33912362D01*
X49912899Y33912358D01*
X50038403Y33733121D01*
X50193120Y33578404D01*
X50372357Y33452900D01*
X50372360Y33452899D01*
X50372361Y33452898D01*
X50377815Y33450355D01*
X50447739Y33396004D01*
X50487157Y33316696D01*
X50488260Y33228140D01*
X50450832Y33147874D01*
X50382284Y33091797D01*
X50377820Y33089647D01*
X50372362Y33087102D01*
X50193127Y32961602D01*
X50193119Y32961595D01*
X50038405Y32806881D01*
X50038398Y32806873D01*
X49912896Y32627636D01*
X49820426Y32429335D01*
X49820424Y32429329D01*
X49763793Y32217980D01*
X49763792Y32217973D01*
X49744723Y32000000D01*
X49763792Y31782028D01*
X49763793Y31782021D01*
X49820424Y31570672D01*
X49820427Y31570665D01*
X49912897Y31372362D01*
X49912899Y31372358D01*
X50038403Y31193121D01*
X50193120Y31038404D01*
X50372357Y30912900D01*
X50372360Y30912899D01*
X50372361Y30912898D01*
X50377815Y30910355D01*
X50447739Y30856004D01*
X50487157Y30776696D01*
X50488260Y30688140D01*
X50450832Y30607874D01*
X50382284Y30551797D01*
X50377820Y30549647D01*
X50372362Y30547102D01*
X50193127Y30421602D01*
X50193119Y30421595D01*
X50038405Y30266881D01*
X50038398Y30266873D01*
X49912896Y30087636D01*
X49820426Y29889335D01*
X49820424Y29889329D01*
X49763793Y29677980D01*
X49763792Y29677973D01*
X49744723Y29460000D01*
X49763792Y29242028D01*
X49763793Y29242021D01*
X49820424Y29030672D01*
X49820427Y29030665D01*
X49889004Y28883601D01*
X49907634Y28797019D01*
X49886851Y28710929D01*
X49830774Y28642381D01*
X49750509Y28604952D01*
X49708649Y28600500D01*
X49331163Y28600500D01*
X49244820Y28620207D01*
X49190449Y28658786D01*
X46658786Y31190449D01*
X46611667Y31265437D01*
X46600500Y31331163D01*
X46600500Y40494107D01*
X46601352Y40507107D01*
X46603574Y40523992D01*
X46605682Y40540000D01*
X46585044Y40696762D01*
X46524536Y40842841D01*
X46499647Y40875277D01*
X46428282Y40968282D01*
X46428280Y40968283D01*
X46428280Y40968284D01*
X46420028Y40974615D01*
X46401952Y40988486D01*
X46392174Y40997061D01*
X45661735Y41727500D01*
X45614616Y41802488D01*
X45604700Y41890495D01*
X45610228Y41919710D01*
X45616207Y41942023D01*
X45635277Y42160000D01*
X45616207Y42377977D01*
X45559575Y42589330D01*
X45495436Y42726875D01*
X45467103Y42787636D01*
X45341601Y42966873D01*
X45341599Y42966875D01*
X45341598Y42966877D01*
X45186877Y43121598D01*
X45186876Y43121599D01*
X45186875Y43121600D01*
X45007642Y43247101D01*
X45007638Y43247103D01*
X44809335Y43339573D01*
X44809328Y43339576D01*
X44597979Y43396207D01*
X44597972Y43396208D01*
X44380000Y43415277D01*
X44162027Y43396208D01*
X44162020Y43396207D01*
X43950671Y43339576D01*
X43950665Y43339574D01*
X43752364Y43247104D01*
X43573127Y43121602D01*
X43573119Y43121595D01*
X43418405Y42966881D01*
X43418398Y42966873D01*
X43292896Y42787636D01*
X43200426Y42589335D01*
X43200424Y42589329D01*
X43143793Y42377980D01*
X43143792Y42377973D01*
X43124723Y42160000D01*
X43143792Y41942028D01*
X43143793Y41942021D01*
X43200424Y41730672D01*
X43200427Y41730665D01*
X43292897Y41532362D01*
X43292899Y41532358D01*
X43418403Y41353121D01*
X43573120Y41198404D01*
X43752357Y41072900D01*
X43752360Y41072899D01*
X43752361Y41072898D01*
X43757815Y41070355D01*
X43827739Y41016004D01*
X43867157Y40936696D01*
X43868260Y40848140D01*
X43830832Y40767874D01*
X43762284Y40711797D01*
X43757820Y40709647D01*
X43752362Y40707102D01*
X43573127Y40581602D01*
X43573119Y40581595D01*
X43418405Y40426881D01*
X43418398Y40426873D01*
X43292896Y40247636D01*
X43200426Y40049335D01*
X43200424Y40049329D01*
X43143793Y39837980D01*
X43143792Y39837973D01*
X43124723Y39620000D01*
X43143792Y39402028D01*
X43143793Y39402021D01*
X43200424Y39190672D01*
X43200427Y39190665D01*
X43292897Y38992362D01*
X43292899Y38992358D01*
X43418403Y38813121D01*
X43573120Y38658404D01*
X43752357Y38532900D01*
X43752360Y38532899D01*
X43752361Y38532898D01*
X43757815Y38530355D01*
X43827739Y38476004D01*
X43867157Y38396696D01*
X43868260Y38308140D01*
X43830832Y38227874D01*
X43762284Y38171797D01*
X43757820Y38169647D01*
X43752362Y38167102D01*
X43573127Y38041602D01*
X43573119Y38041595D01*
X43418405Y37886881D01*
X43418398Y37886873D01*
X43292896Y37707636D01*
X43200426Y37509335D01*
X43200424Y37509329D01*
X43143793Y37297980D01*
X43143792Y37297973D01*
X43124723Y37080000D01*
X43143792Y36862028D01*
X43143793Y36862021D01*
X43200424Y36650672D01*
X43200427Y36650665D01*
X43292897Y36452362D01*
X43292899Y36452358D01*
X43418403Y36273121D01*
X43573120Y36118404D01*
X43752357Y35992900D01*
X43752360Y35992899D01*
X43752361Y35992898D01*
X43757815Y35990355D01*
X43827739Y35936004D01*
X43867157Y35856696D01*
X43868260Y35768140D01*
X43830832Y35687874D01*
X43762284Y35631797D01*
X43757820Y35629647D01*
X43752362Y35627102D01*
X43573127Y35501602D01*
X43573119Y35501595D01*
X43418405Y35346881D01*
X43418398Y35346873D01*
X43292896Y35167636D01*
X43200426Y34969335D01*
X43200424Y34969329D01*
X43143793Y34757980D01*
X43143792Y34757973D01*
X43124723Y34540000D01*
X43143792Y34322028D01*
X43143793Y34322021D01*
X43200424Y34110672D01*
X43200427Y34110665D01*
X43292897Y33912362D01*
X43292899Y33912358D01*
X43418403Y33733121D01*
X43573120Y33578404D01*
X43752357Y33452900D01*
X43752360Y33452899D01*
X43752361Y33452898D01*
X43757815Y33450355D01*
X43827739Y33396004D01*
X43867157Y33316696D01*
X43868260Y33228140D01*
X43830832Y33147874D01*
X43762284Y33091797D01*
X43757820Y33089647D01*
X43752362Y33087102D01*
X43573127Y32961602D01*
X43573119Y32961595D01*
X43418405Y32806881D01*
X43418398Y32806873D01*
X43292896Y32627636D01*
X43200426Y32429335D01*
X43200424Y32429329D01*
X43143793Y32217980D01*
X43143792Y32217973D01*
X43124723Y32000000D01*
X43143792Y31782028D01*
X43143793Y31782021D01*
X43200424Y31570672D01*
X43200427Y31570665D01*
X43292897Y31372362D01*
X43292899Y31372358D01*
X43418403Y31193121D01*
X43573120Y31038404D01*
X43752357Y30912900D01*
X43752360Y30912899D01*
X43752361Y30912898D01*
X43757815Y30910355D01*
X43827739Y30856004D01*
X43867157Y30776696D01*
X43868260Y30688140D01*
X43830832Y30607874D01*
X43762284Y30551797D01*
X43757820Y30549647D01*
X43752362Y30547102D01*
X43573127Y30421602D01*
X43573119Y30421595D01*
X43418405Y30266881D01*
X43418398Y30266873D01*
X43292896Y30087636D01*
X43200426Y29889335D01*
X43200424Y29889329D01*
X43143793Y29677980D01*
X43143792Y29677973D01*
X43124723Y29460000D01*
X43143792Y29242028D01*
X43143793Y29242021D01*
X43200424Y29030672D01*
X43200427Y29030665D01*
X43292897Y28832362D01*
X43292899Y28832358D01*
X43418403Y28653121D01*
X43573120Y28498404D01*
X43752357Y28372900D01*
X43752361Y28372898D01*
X43950670Y28280425D01*
X44162023Y28223793D01*
X44380000Y28204723D01*
X44597977Y28223793D01*
X44809330Y28280425D01*
X45007639Y28372898D01*
X45186877Y28498402D01*
X45341598Y28653123D01*
X45467102Y28832361D01*
X45559575Y29030670D01*
X45616207Y29242023D01*
X45635277Y29460000D01*
X45616207Y29677977D01*
X45559575Y29889330D01*
X45495436Y30026875D01*
X45467103Y30087636D01*
X45405914Y30175023D01*
X45379646Y30212538D01*
X45346267Y30294568D01*
X45350744Y30366310D01*
X45326059Y30361159D01*
X45240100Y30382477D01*
X45193619Y30416115D01*
X45193534Y30416013D01*
X45192116Y30417203D01*
X45189066Y30419410D01*
X45186879Y30421597D01*
X45007642Y30547101D01*
X45007638Y30547103D01*
X45002190Y30549643D01*
X44932264Y30603992D01*
X44892844Y30683298D01*
X44891737Y30771855D01*
X44929164Y30852121D01*
X44997710Y30908200D01*
X45002190Y30910357D01*
X45003069Y30910768D01*
X45007639Y30912898D01*
X45007641Y30912900D01*
X45007644Y30912901D01*
X45075820Y30960639D01*
X45103545Y30980053D01*
X45185575Y31013434D01*
X45273966Y31007918D01*
X45351211Y30964597D01*
X45402009Y30892050D01*
X45412575Y30852123D01*
X45414955Y30843242D01*
X45414956Y30843238D01*
X45428664Y30810144D01*
X45475463Y30697160D01*
X45475465Y30697157D01*
X45487657Y30681268D01*
X45524585Y30600771D01*
X45523075Y30520063D01*
X45555056Y30525291D01*
X45640003Y30500244D01*
X45683373Y30467392D01*
X48542939Y27607826D01*
X48551514Y27598048D01*
X48571718Y27571718D01*
X48682285Y27486877D01*
X48697159Y27475464D01*
X48843238Y27414956D01*
X49000000Y27394318D01*
X49021384Y27397134D01*
X49032893Y27398648D01*
X49045893Y27399500D01*
X51954107Y27399500D01*
X51967107Y27398648D01*
X51979873Y27396968D01*
X52000000Y27394318D01*
X52156762Y27414956D01*
X52302841Y27475464D01*
X52306303Y27478121D01*
X52317716Y27486877D01*
X52428277Y27571714D01*
X52428277Y27571715D01*
X52428282Y27571718D01*
X52448486Y27598050D01*
X52457060Y27607827D01*
X57612365Y32763132D01*
X57687351Y32810249D01*
X57775358Y32820165D01*
X57789637Y32818029D01*
X57888757Y32799500D01*
X57888759Y32799500D01*
X58111241Y32799500D01*
X58111243Y32799500D01*
X58329940Y32840382D01*
X58537401Y32920753D01*
X58726562Y33037876D01*
X58890981Y33187764D01*
X58991162Y33320425D01*
X59058922Y33377451D01*
X59144714Y33399431D01*
X59149967Y33399500D01*
X62168837Y33399500D01*
X62255180Y33379793D01*
X62309551Y33341214D01*
X65159668Y30491097D01*
X65206787Y30416109D01*
X65216703Y30328102D01*
X65200000Y30280369D01*
X65200000Y29458336D01*
X65142315Y29484680D01*
X65035763Y29500000D01*
X64964237Y29500000D01*
X64857685Y29484680D01*
X64800000Y29458336D01*
X64800000Y30250000D01*
X64793870Y30250000D01*
X64625908Y30234884D01*
X64625902Y30234883D01*
X64409004Y30175023D01*
X64206283Y30077398D01*
X64024251Y29945143D01*
X63868766Y29782519D01*
X63868754Y29782504D01*
X63744806Y29594729D01*
X63744805Y29594728D01*
X63656376Y29387837D01*
X63613504Y29200001D01*
X63613505Y29200000D01*
X64537617Y29200000D01*
X64500000Y29071889D01*
X64500000Y28928111D01*
X64537617Y28800000D01*
X63615676Y28800000D01*
X63626415Y28720727D01*
X63626418Y28720714D01*
X63695942Y28506737D01*
X63802569Y28308593D01*
X63942851Y28132684D01*
X64050883Y28038300D01*
X64102940Y27966651D01*
X64118754Y27879511D01*
X64095193Y27794139D01*
X64036924Y27727444D01*
X63998983Y27705803D01*
X63989599Y27701743D01*
X63848136Y27618083D01*
X63731917Y27501864D01*
X63648256Y27360400D01*
X63602401Y27202568D01*
X63600574Y27192562D01*
X63597949Y27193042D01*
X63576466Y27124337D01*
X63515978Y27059648D01*
X63433413Y27027610D01*
X63404512Y27025500D01*
X59115984Y27025500D01*
X59029641Y27045207D01*
X58960400Y27100426D01*
X58957202Y27104545D01*
X58890981Y27192236D01*
X58726562Y27342124D01*
X58537401Y27459247D01*
X58329940Y27539618D01*
X58111243Y27580500D01*
X57888757Y27580500D01*
X57670060Y27539618D01*
X57462599Y27459247D01*
X57462598Y27459247D01*
X57462597Y27459246D01*
X57462595Y27459245D01*
X57273442Y27342127D01*
X57273440Y27342126D01*
X57273438Y27342124D01*
X57109377Y27192562D01*
X57109015Y27192232D01*
X56974945Y27014695D01*
X56970101Y27006870D01*
X56968826Y27007659D01*
X56919364Y26947289D01*
X56839070Y26909921D01*
X56797357Y26905500D01*
X52888984Y26905500D01*
X52887082Y26905565D01*
X52825758Y26907661D01*
X52825755Y26907660D01*
X52786719Y26898148D01*
X52776706Y26896245D01*
X52736891Y26890772D01*
X52736888Y26890771D01*
X52727494Y26886691D01*
X52695347Y26875881D01*
X52685414Y26873460D01*
X52685401Y26873456D01*
X52650383Y26853766D01*
X52641255Y26849232D01*
X52604395Y26833222D01*
X52604391Y26833219D01*
X52596449Y26826758D01*
X52568416Y26807679D01*
X52559489Y26802659D01*
X52559486Y26802658D01*
X52531069Y26774240D01*
X52523505Y26767414D01*
X52492338Y26742057D01*
X52492331Y26742050D01*
X52486430Y26733690D01*
X52464575Y26707747D01*
X48899576Y23142747D01*
X48824588Y23095628D01*
X48736581Y23085712D01*
X48652988Y23114963D01*
X48590364Y23177587D01*
X48561113Y23261180D01*
X48560711Y23265103D01*
X48560115Y23271535D01*
X48560114Y23271540D01*
X48542672Y23332843D01*
X48499229Y23485528D01*
X48400058Y23684689D01*
X48400055Y23684693D01*
X48400054Y23684695D01*
X48265984Y23862232D01*
X48265981Y23862236D01*
X48101562Y24012124D01*
X47912401Y24129247D01*
X47704940Y24209618D01*
X47486243Y24250500D01*
X47263757Y24250500D01*
X47045060Y24209618D01*
X46837599Y24129247D01*
X46837598Y24129247D01*
X46837597Y24129246D01*
X46837595Y24129245D01*
X46648442Y24012127D01*
X46648440Y24012126D01*
X46648438Y24012124D01*
X46549600Y23922021D01*
X46484015Y23862232D01*
X46349945Y23684695D01*
X46349941Y23684688D01*
X46250773Y23485532D01*
X46250770Y23485526D01*
X46189885Y23271540D01*
X46189885Y23271536D01*
X46169626Y23052898D01*
X46169357Y23050000D01*
X46187400Y22855277D01*
X46189885Y22828465D01*
X46189885Y22828461D01*
X46250770Y22614475D01*
X46250773Y22614468D01*
X46350992Y22413202D01*
X46371838Y22327127D01*
X46353272Y22240532D01*
X46298973Y22170567D01*
X46219694Y22131091D01*
X46172855Y22125500D01*
X43576588Y22125500D01*
X43490245Y22145207D01*
X43421004Y22200426D01*
X43382577Y22280218D01*
X43382577Y22368782D01*
X43398451Y22413202D01*
X43498759Y22614649D01*
X43559620Y22828558D01*
X43559621Y22828561D01*
X43580141Y23050000D01*
X43580141Y23050001D01*
X43559621Y23271440D01*
X43559620Y23271443D01*
X43498761Y23485347D01*
X43399632Y23684424D01*
X43353437Y23745597D01*
X42763285Y23155445D01*
X42760165Y23175148D01*
X42702641Y23288045D01*
X42613045Y23377641D01*
X42500148Y23435165D01*
X42480443Y23438286D01*
X43071998Y24029842D01*
X43071997Y24029843D01*
X42912184Y24128795D01*
X42912185Y24128795D01*
X42704804Y24209136D01*
X42486193Y24250000D01*
X42263807Y24250000D01*
X42045195Y24209136D01*
X41837819Y24128797D01*
X41678001Y24029842D01*
X42269557Y23438286D01*
X42249852Y23435165D01*
X42136955Y23377641D01*
X42047359Y23288045D01*
X41989835Y23175148D01*
X41986714Y23155443D01*
X41396561Y23745596D01*
X41350365Y23684422D01*
X41251240Y23485352D01*
X41190379Y23271443D01*
X41190378Y23271440D01*
X41169859Y23050001D01*
X41169859Y23050000D01*
X41190378Y22828561D01*
X41190379Y22828558D01*
X41251240Y22614649D01*
X41351549Y22413202D01*
X41372395Y22327127D01*
X41353829Y22240531D01*
X41299529Y22170567D01*
X41220251Y22131091D01*
X41173412Y22125500D01*
X36260964Y22125500D01*
X36174621Y22145207D01*
X36105380Y22200426D01*
X36088625Y22225000D01*
X36087103Y22227636D01*
X36081684Y22235375D01*
X35961598Y22406877D01*
X35806877Y22561598D01*
X35806876Y22561599D01*
X35806875Y22561600D01*
X35627642Y22687101D01*
X35627638Y22687103D01*
X35622190Y22689643D01*
X35552264Y22743992D01*
X35512844Y22823298D01*
X35511737Y22911855D01*
X35549164Y22992121D01*
X35617710Y23048200D01*
X35622190Y23050357D01*
X35623069Y23050768D01*
X35627639Y23052898D01*
X35806877Y23178402D01*
X35961598Y23333123D01*
X36087102Y23512361D01*
X36179575Y23710670D01*
X36236207Y23922023D01*
X36255277Y24140000D01*
X36236207Y24357977D01*
X36179575Y24569330D01*
X36087102Y24767638D01*
X35961598Y24946877D01*
X35806877Y25101598D01*
X35806876Y25101599D01*
X35806875Y25101600D01*
X35627642Y25227101D01*
X35627638Y25227103D01*
X35622190Y25229643D01*
X35552264Y25283992D01*
X35512844Y25363298D01*
X35511737Y25451855D01*
X35549164Y25532121D01*
X35617710Y25588200D01*
X35622190Y25590357D01*
X35623069Y25590768D01*
X35627639Y25592898D01*
X35806877Y25718402D01*
X35961598Y25873123D01*
X36087102Y26052361D01*
X36179575Y26250670D01*
X36236207Y26462023D01*
X36255277Y26680000D01*
X36236207Y26897977D01*
X36179575Y27109330D01*
X36087102Y27307638D01*
X35980945Y27459247D01*
X35961601Y27486873D01*
X35961600Y27486874D01*
X35961598Y27486877D01*
X35806877Y27641598D01*
X35806876Y27641599D01*
X35806875Y27641600D01*
X35627642Y27767101D01*
X35627638Y27767103D01*
X35622190Y27769643D01*
X35552264Y27823992D01*
X35512844Y27903298D01*
X35511737Y27991855D01*
X35549164Y28072121D01*
X35617710Y28128200D01*
X35622190Y28130357D01*
X35623069Y28130768D01*
X35627639Y28132898D01*
X35806877Y28258402D01*
X35961598Y28413123D01*
X36087102Y28592361D01*
X36179575Y28790670D01*
X36236207Y29002023D01*
X36255277Y29220000D01*
X36236207Y29437977D01*
X36179575Y29649330D01*
X36166218Y29677973D01*
X36087103Y29847636D01*
X36057905Y29889335D01*
X35961598Y30026877D01*
X35806877Y30181598D01*
X35806876Y30181599D01*
X35806875Y30181600D01*
X35627642Y30307101D01*
X35627638Y30307103D01*
X35622190Y30309643D01*
X35552264Y30363992D01*
X35512844Y30443298D01*
X35511737Y30531855D01*
X35549164Y30612121D01*
X35617710Y30668200D01*
X35622190Y30670357D01*
X35623069Y30670768D01*
X35627639Y30672898D01*
X35806877Y30798402D01*
X35961598Y30953123D01*
X36087102Y31132361D01*
X36179575Y31330670D01*
X36236207Y31542023D01*
X36255277Y31760000D01*
X36236207Y31977977D01*
X36179575Y32189330D01*
X36166218Y32217973D01*
X36087103Y32387636D01*
X36057905Y32429335D01*
X35961598Y32566877D01*
X35806877Y32721598D01*
X35806876Y32721599D01*
X35806875Y32721600D01*
X35627642Y32847101D01*
X35627638Y32847103D01*
X35622190Y32849643D01*
X35552264Y32903992D01*
X35512844Y32983298D01*
X35511737Y33071855D01*
X35549164Y33152121D01*
X35617710Y33208200D01*
X35622190Y33210357D01*
X35623069Y33210768D01*
X35627639Y33212898D01*
X35806877Y33338402D01*
X35961598Y33493123D01*
X36087102Y33672361D01*
X36179575Y33870670D01*
X36236207Y34082023D01*
X36255277Y34300000D01*
X36236207Y34517977D01*
X36179575Y34729330D01*
X36166218Y34757973D01*
X36087103Y34927636D01*
X36062954Y34962124D01*
X35961598Y35106877D01*
X35806877Y35261598D01*
X35806876Y35261599D01*
X35806875Y35261600D01*
X35627642Y35387101D01*
X35627638Y35387103D01*
X35622190Y35389643D01*
X35552264Y35443992D01*
X35512844Y35523298D01*
X35511737Y35611855D01*
X35549164Y35692121D01*
X35617710Y35748200D01*
X35622190Y35750357D01*
X35623069Y35750768D01*
X35627639Y35752898D01*
X35806877Y35878402D01*
X35961598Y36033123D01*
X36087102Y36212361D01*
X36179575Y36410670D01*
X36236207Y36622023D01*
X36255277Y36840000D01*
X36236207Y37057977D01*
X36179575Y37269330D01*
X36166471Y37297431D01*
X36087103Y37467636D01*
X36057905Y37509335D01*
X35961598Y37646877D01*
X35806877Y37801598D01*
X35806876Y37801599D01*
X35806875Y37801600D01*
X35627642Y37927101D01*
X35627638Y37927103D01*
X35622190Y37929643D01*
X35552264Y37983992D01*
X35512844Y38063298D01*
X35511737Y38151855D01*
X35549164Y38232121D01*
X35617710Y38288200D01*
X35622190Y38290357D01*
X35623069Y38290768D01*
X35627639Y38292898D01*
X35806877Y38418402D01*
X35961598Y38573123D01*
X36087102Y38752361D01*
X36179575Y38950670D01*
X36236207Y39162023D01*
X36255277Y39380000D01*
X36236207Y39597977D01*
X36179575Y39809330D01*
X36166218Y39837973D01*
X36087103Y40007636D01*
X36057905Y40049335D01*
X35961598Y40186877D01*
X35806877Y40341598D01*
X35806876Y40341599D01*
X35806875Y40341600D01*
X35627642Y40467101D01*
X35627638Y40467103D01*
X35622190Y40469643D01*
X35552264Y40523992D01*
X35512844Y40603298D01*
X35511737Y40691855D01*
X35549164Y40772121D01*
X35617710Y40828200D01*
X35622190Y40830357D01*
X35623069Y40830768D01*
X35627639Y40832898D01*
X35806877Y40958402D01*
X35961598Y41113123D01*
X36087102Y41292361D01*
X36179575Y41490670D01*
X36236207Y41702023D01*
X36255277Y41920000D01*
X36236207Y42137977D01*
X36179575Y42349330D01*
X36166254Y42377896D01*
X36087103Y42547636D01*
X36060974Y42584952D01*
X35961598Y42726877D01*
X35806877Y42881598D01*
X35806876Y42881599D01*
X35806875Y42881600D01*
X35627642Y43007100D01*
X35627641Y43007101D01*
X35627639Y43007102D01*
X35621586Y43009925D01*
X35551664Y43064277D01*
X35512249Y43143586D01*
X35511148Y43232143D01*
X35548579Y43312407D01*
X35617128Y43368482D01*
X35621608Y43370639D01*
X35627393Y43373337D01*
X35806555Y43498788D01*
X35961212Y43653445D01*
X36086665Y43832609D01*
X36086667Y43832612D01*
X36179104Y44030847D01*
X36179105Y44030849D01*
X36235710Y44242106D01*
X36235712Y44242117D01*
X36237277Y44260000D01*
X35462383Y44260000D01*
X35500000Y44388111D01*
X35500000Y44531889D01*
X35462383Y44660000D01*
X36237277Y44660000D01*
X36237277Y44660001D01*
X36235712Y44677884D01*
X36235710Y44677895D01*
X36179104Y44889155D01*
X36179104Y44889156D01*
X36086667Y45087386D01*
X36086663Y45087393D01*
X35961215Y45266553D01*
X35806555Y45421213D01*
X35627391Y45546666D01*
X35627387Y45546668D01*
X35621598Y45549367D01*
X35551672Y45603716D01*
X35512252Y45683022D01*
X35511145Y45771579D01*
X35548572Y45851845D01*
X35617118Y45907924D01*
X35621535Y45910052D01*
X35627639Y45912898D01*
X35806877Y46038402D01*
X35961598Y46193123D01*
X36087102Y46372361D01*
X36179575Y46570670D01*
X36236207Y46782023D01*
X36255277Y47000000D01*
X36236207Y47217977D01*
X36179575Y47429330D01*
X36087102Y47627638D01*
X35961598Y47806877D01*
X35806877Y47961598D01*
X35806876Y47961599D01*
X35806875Y47961600D01*
X35627642Y48087101D01*
X35627638Y48087103D01*
X35622190Y48089643D01*
X35552264Y48143992D01*
X35512844Y48223298D01*
X35511737Y48311855D01*
X35549164Y48392121D01*
X35617710Y48448200D01*
X35622190Y48450357D01*
X35623069Y48450768D01*
X35627639Y48452898D01*
X35806877Y48578402D01*
X35961598Y48733123D01*
X36087102Y48912361D01*
X36179575Y49110670D01*
X36236207Y49322023D01*
X36255277Y49540000D01*
X36236207Y49757977D01*
X36179575Y49969330D01*
X36088009Y50165692D01*
X36087103Y50167636D01*
X35961601Y50346873D01*
X35961599Y50346875D01*
X35961598Y50346877D01*
X35806877Y50501598D01*
X35806876Y50501599D01*
X35806875Y50501600D01*
X35627642Y50627101D01*
X35627638Y50627103D01*
X35622190Y50629643D01*
X35552264Y50683992D01*
X35512844Y50763298D01*
X35511737Y50851855D01*
X35549164Y50932121D01*
X35617710Y50988200D01*
X35622190Y50990357D01*
X35623069Y50990768D01*
X35627639Y50992898D01*
X35806877Y51118402D01*
X35961598Y51273123D01*
X36087102Y51452361D01*
X36179575Y51650670D01*
X36236207Y51862023D01*
X36243350Y51943670D01*
X63595710Y51943670D01*
X63625925Y51720613D01*
X63625926Y51720609D01*
X63625927Y51720606D01*
X63695485Y51506530D01*
X63802147Y51308321D01*
X63802149Y51308318D01*
X63942489Y51132337D01*
X63942491Y51132336D01*
X63942492Y51132334D01*
X64031600Y51054482D01*
X64050375Y51038079D01*
X64102431Y50966429D01*
X64118245Y50879289D01*
X64094683Y50793918D01*
X64036414Y50727223D01*
X63998476Y50705584D01*
X63989600Y50701744D01*
X63848136Y50618083D01*
X63731917Y50501864D01*
X63648256Y50360400D01*
X63602402Y50202570D01*
X63599500Y50165692D01*
X63599500Y48834308D01*
X63602402Y48797431D01*
X63648256Y48639601D01*
X63731917Y48498137D01*
X63848136Y48381918D01*
X63966607Y48311855D01*
X63989602Y48298256D01*
X64147431Y48252402D01*
X64184306Y48249500D01*
X64184308Y48249500D01*
X65815692Y48249500D01*
X65815694Y48249500D01*
X65852569Y48252402D01*
X66010398Y48298256D01*
X66151865Y48381919D01*
X66268081Y48498135D01*
X66351744Y48639602D01*
X66397598Y48797431D01*
X66400500Y48834306D01*
X66400500Y50165694D01*
X66397598Y50202569D01*
X66351744Y50360398D01*
X66268081Y50501865D01*
X66151865Y50618081D01*
X66151863Y50618083D01*
X66010399Y50701744D01*
X66004810Y50704162D01*
X65933395Y50756539D01*
X65891777Y50834714D01*
X65888200Y50923206D01*
X65923372Y51004485D01*
X65966873Y51047791D01*
X65976078Y51054478D01*
X66131632Y51217175D01*
X66255635Y51405032D01*
X66344103Y51612012D01*
X66394191Y51831463D01*
X66404290Y52056330D01*
X66374075Y52279387D01*
X66304517Y52493464D01*
X66304515Y52493468D01*
X66304514Y52493471D01*
X66241835Y52609947D01*
X66197852Y52691681D01*
X66057508Y52867666D01*
X66019486Y52900885D01*
X65887997Y53015765D01*
X65887992Y53015768D01*
X65694761Y53131217D01*
X65694759Y53131218D01*
X65484026Y53210307D01*
X65262547Y53250500D01*
X64793845Y53250500D01*
X64738855Y53245551D01*
X64625819Y53235378D01*
X64625814Y53235378D01*
X64625812Y53235377D01*
X64625809Y53235377D01*
X64625802Y53235375D01*
X64408831Y53175494D01*
X64206024Y53077828D01*
X64023920Y52945521D01*
X63868373Y52782832D01*
X63868365Y52782822D01*
X63744366Y52594972D01*
X63655896Y52387986D01*
X63605808Y52168535D01*
X63595710Y51943671D01*
X63595710Y51943670D01*
X36243350Y51943670D01*
X36255277Y52080000D01*
X36236207Y52297977D01*
X36179575Y52509330D01*
X36087102Y52707638D01*
X35961598Y52886877D01*
X35806877Y53041598D01*
X35806876Y53041599D01*
X35806875Y53041600D01*
X35627642Y53167101D01*
X35627638Y53167103D01*
X35622190Y53169643D01*
X35552264Y53223992D01*
X35512844Y53303298D01*
X35511737Y53391855D01*
X35549164Y53472121D01*
X35617710Y53528200D01*
X35622190Y53530357D01*
X35623069Y53530768D01*
X35627639Y53532898D01*
X35806877Y53658402D01*
X35961598Y53813123D01*
X36087102Y53992361D01*
X36179575Y54190670D01*
X36236207Y54402023D01*
X36255277Y54620000D01*
X36236207Y54837977D01*
X36179575Y55049330D01*
X36087102Y55247638D01*
X35961598Y55426877D01*
X35806877Y55581598D01*
X35806876Y55581599D01*
X35806875Y55581600D01*
X35627642Y55707101D01*
X35627638Y55707103D01*
X35622190Y55709643D01*
X35552264Y55763992D01*
X35512844Y55843298D01*
X35511737Y55931855D01*
X35549164Y56012121D01*
X35617710Y56068200D01*
X35622190Y56070357D01*
X35623069Y56070768D01*
X35627639Y56072898D01*
X35806877Y56198402D01*
X35961598Y56353123D01*
X36087102Y56532361D01*
X36179575Y56730670D01*
X36236207Y56942023D01*
X36255277Y57160000D01*
X36236207Y57377977D01*
X36203511Y57500000D01*
X43744723Y57500000D01*
X43763792Y57282028D01*
X43763793Y57282021D01*
X43820424Y57070672D01*
X43820427Y57070665D01*
X43912897Y56872362D01*
X43912899Y56872358D01*
X44038403Y56693121D01*
X44193120Y56538404D01*
X44372357Y56412900D01*
X44372361Y56412898D01*
X44570670Y56320425D01*
X44782023Y56263793D01*
X45000000Y56244723D01*
X45217977Y56263793D01*
X45429330Y56320425D01*
X45627639Y56412898D01*
X45806877Y56538402D01*
X45961598Y56693123D01*
X46087102Y56872361D01*
X46179575Y57070670D01*
X46236207Y57282023D01*
X46255277Y57500000D01*
X53745225Y57500000D01*
X53764289Y57282105D01*
X53820894Y57070849D01*
X53820895Y57070847D01*
X53913332Y56872613D01*
X53913333Y56872612D01*
X53985995Y56768840D01*
X53985996Y56768839D01*
X54532972Y57315816D01*
X54540507Y57290156D01*
X54618239Y57169202D01*
X54726900Y57075048D01*
X54816823Y57033981D01*
X54268838Y56485997D01*
X54268838Y56485996D01*
X54372609Y56413335D01*
X54372612Y56413333D01*
X54570846Y56320896D01*
X54570848Y56320895D01*
X54782104Y56264290D01*
X55000000Y56245226D01*
X55217895Y56264290D01*
X55429151Y56320895D01*
X55429153Y56320896D01*
X55627388Y56413333D01*
X55627391Y56413335D01*
X55731160Y56485996D01*
X55731160Y56485997D01*
X55183176Y57033982D01*
X55273100Y57075048D01*
X55381761Y57169202D01*
X55459493Y57290156D01*
X55467027Y57315816D01*
X56014003Y56768840D01*
X56014004Y56768840D01*
X56086665Y56872609D01*
X56086667Y56872612D01*
X56179104Y57070847D01*
X56179105Y57070849D01*
X56235710Y57282105D01*
X56254774Y57500000D01*
X56235710Y57717896D01*
X56179104Y57929155D01*
X56179104Y57929156D01*
X56086670Y58127381D01*
X56086669Y58127383D01*
X56014002Y58231161D01*
X55467027Y57684186D01*
X55459493Y57709844D01*
X55381761Y57830798D01*
X55273100Y57924952D01*
X55183176Y57966019D01*
X55731161Y58514004D01*
X55731160Y58514005D01*
X55627388Y58586667D01*
X55627387Y58586668D01*
X55429153Y58679105D01*
X55429151Y58679106D01*
X55217895Y58735711D01*
X55000000Y58754775D01*
X54782104Y58735711D01*
X54570845Y58679105D01*
X54570844Y58679105D01*
X54372614Y58586668D01*
X54372613Y58586668D01*
X54268839Y58514005D01*
X54268839Y58514004D01*
X54816823Y57966020D01*
X54726900Y57924952D01*
X54618239Y57830798D01*
X54540507Y57709844D01*
X54532972Y57684185D01*
X53985996Y58231161D01*
X53985995Y58231161D01*
X53913332Y58127387D01*
X53913332Y58127386D01*
X53820895Y57929156D01*
X53820895Y57929155D01*
X53764289Y57717896D01*
X53745225Y57500000D01*
X46255277Y57500000D01*
X46236207Y57717977D01*
X46179575Y57929330D01*
X46162068Y57966873D01*
X46087103Y58127636D01*
X45961601Y58306873D01*
X45961599Y58306875D01*
X45961598Y58306877D01*
X45806877Y58461598D01*
X45806876Y58461599D01*
X45806875Y58461600D01*
X45627642Y58587101D01*
X45627638Y58587103D01*
X45429335Y58679573D01*
X45429328Y58679576D01*
X45217979Y58736207D01*
X45217972Y58736208D01*
X45000000Y58755277D01*
X44782027Y58736208D01*
X44782020Y58736207D01*
X44570671Y58679576D01*
X44570665Y58679574D01*
X44372364Y58587104D01*
X44193127Y58461602D01*
X44193119Y58461595D01*
X44038405Y58306881D01*
X44038398Y58306873D01*
X43912896Y58127636D01*
X43820426Y57929335D01*
X43820424Y57929329D01*
X43763793Y57717980D01*
X43763792Y57717973D01*
X43744723Y57500000D01*
X36203511Y57500000D01*
X36179575Y57589330D01*
X36119623Y57717896D01*
X36087103Y57787636D01*
X35961601Y57966873D01*
X35961599Y57966875D01*
X35961598Y57966877D01*
X35806877Y58121598D01*
X35806876Y58121599D01*
X35806875Y58121600D01*
X35627642Y58247100D01*
X35627641Y58247101D01*
X35627639Y58247102D01*
X35621586Y58249925D01*
X35551664Y58304277D01*
X35512249Y58383586D01*
X35511148Y58472143D01*
X35548579Y58552407D01*
X35617128Y58608482D01*
X35621608Y58610639D01*
X35627393Y58613337D01*
X35806555Y58738788D01*
X35961212Y58893445D01*
X36086665Y59072609D01*
X36086667Y59072612D01*
X36179104Y59270847D01*
X36179105Y59270849D01*
X36235710Y59482106D01*
X36235712Y59482117D01*
X36237277Y59500000D01*
X35462383Y59500000D01*
X35500000Y59628111D01*
X35500000Y59771889D01*
X35462383Y59900000D01*
X36237277Y59900000D01*
X36237277Y59900001D01*
X36235712Y59917884D01*
X36235710Y59917895D01*
X36179104Y60129155D01*
X36179104Y60129156D01*
X36086667Y60327386D01*
X36086663Y60327393D01*
X35961215Y60506553D01*
X35806555Y60661213D01*
X35627391Y60786666D01*
X35627388Y60786668D01*
X35429153Y60879105D01*
X35429151Y60879106D01*
X35217894Y60935711D01*
X35217891Y60935712D01*
X35200000Y60937278D01*
X35200000Y60158336D01*
X35142315Y60184680D01*
X35035763Y60200000D01*
X34964237Y60200000D01*
X34857685Y60184680D01*
X34800000Y60158336D01*
X34800000Y60937278D01*
X34782108Y60935712D01*
X34782105Y60935711D01*
X34570845Y60879105D01*
X34570844Y60879105D01*
X34372614Y60786668D01*
X34372607Y60786664D01*
X34193447Y60661216D01*
X34193445Y60661213D01*
X34038787Y60506555D01*
X34038784Y60506553D01*
X33913336Y60327393D01*
X33913332Y60327386D01*
X33820895Y60129156D01*
X33820895Y60129155D01*
X33764289Y59917895D01*
X33764287Y59917884D01*
X33762722Y59900001D01*
X33762723Y59900000D01*
X34537617Y59900000D01*
X34500000Y59771889D01*
X34500000Y59628111D01*
X34537617Y59500000D01*
X33762723Y59500000D01*
X33764287Y59482117D01*
X33764289Y59482106D01*
X33820894Y59270849D01*
X33820895Y59270847D01*
X33913332Y59072612D01*
X33913334Y59072609D01*
X34038787Y58893445D01*
X34193444Y58738788D01*
X34372608Y58613335D01*
X34372612Y58613333D01*
X34378406Y58610631D01*
X34448331Y58556280D01*
X34487749Y58476972D01*
X34488853Y58388416D01*
X34451424Y58308150D01*
X34382876Y58252073D01*
X34378411Y58249923D01*
X34372363Y58247103D01*
X34193127Y58121602D01*
X34193119Y58121595D01*
X34038405Y57966881D01*
X34038398Y57966873D01*
X33912896Y57787636D01*
X33820426Y57589335D01*
X33820424Y57589329D01*
X33763793Y57377980D01*
X33763792Y57377973D01*
X33744723Y57160000D01*
X33763792Y56942028D01*
X33763793Y56942021D01*
X33820424Y56730672D01*
X33820427Y56730665D01*
X33912897Y56532362D01*
X33912899Y56532358D01*
X34038403Y56353121D01*
X34193120Y56198404D01*
X34372357Y56072900D01*
X34372360Y56072899D01*
X34372361Y56072898D01*
X34377815Y56070355D01*
X34447739Y56016004D01*
X34487157Y55936696D01*
X34488260Y55848140D01*
X34450832Y55767874D01*
X34382284Y55711797D01*
X34377820Y55709647D01*
X34372362Y55707102D01*
X34193127Y55581602D01*
X34193119Y55581595D01*
X34038405Y55426881D01*
X34038398Y55426873D01*
X33912896Y55247636D01*
X33820426Y55049335D01*
X33820424Y55049329D01*
X33763793Y54837980D01*
X33763792Y54837973D01*
X33744723Y54620000D01*
X33763792Y54402028D01*
X33763793Y54402021D01*
X33820424Y54190672D01*
X33820427Y54190665D01*
X33912897Y53992362D01*
X33912899Y53992358D01*
X34038403Y53813121D01*
X34193120Y53658404D01*
X34372357Y53532900D01*
X34372360Y53532899D01*
X34372361Y53532898D01*
X34377815Y53530355D01*
X34447739Y53476004D01*
X34487157Y53396696D01*
X34488260Y53308140D01*
X34450832Y53227874D01*
X34382284Y53171797D01*
X34377820Y53169647D01*
X34372362Y53167102D01*
X34193127Y53041602D01*
X34193119Y53041595D01*
X34038405Y52886881D01*
X34038398Y52886873D01*
X33912896Y52707636D01*
X33820426Y52509335D01*
X33820424Y52509329D01*
X33763793Y52297980D01*
X33763792Y52297973D01*
X33744723Y52080000D01*
X33763792Y51862028D01*
X33763793Y51862021D01*
X33820424Y51650672D01*
X33820427Y51650665D01*
X33912897Y51452362D01*
X33912899Y51452358D01*
X34038403Y51273121D01*
X34193120Y51118404D01*
X34372357Y50992900D01*
X34372360Y50992899D01*
X34372361Y50992898D01*
X34377815Y50990355D01*
X34447739Y50936004D01*
X34487157Y50856696D01*
X34488260Y50768140D01*
X34450832Y50687874D01*
X34382284Y50631797D01*
X34377820Y50629647D01*
X34372362Y50627102D01*
X34193127Y50501602D01*
X34193119Y50501595D01*
X34038405Y50346881D01*
X34038398Y50346873D01*
X33912896Y50167636D01*
X33820426Y49969335D01*
X33820424Y49969329D01*
X33763793Y49757980D01*
X33763792Y49757973D01*
X33744723Y49540000D01*
X33763792Y49322028D01*
X33763793Y49322021D01*
X33820424Y49110672D01*
X33820427Y49110665D01*
X33912897Y48912362D01*
X33912899Y48912358D01*
X34038403Y48733121D01*
X34193120Y48578404D01*
X34372357Y48452900D01*
X34372360Y48452899D01*
X34372361Y48452898D01*
X34377815Y48450355D01*
X34447739Y48396004D01*
X34487157Y48316696D01*
X34488260Y48228140D01*
X34450832Y48147874D01*
X34382284Y48091797D01*
X34377820Y48089647D01*
X34372362Y48087102D01*
X34193127Y47961602D01*
X34193119Y47961595D01*
X34038405Y47806881D01*
X34038398Y47806873D01*
X33912896Y47627636D01*
X33820426Y47429335D01*
X33820424Y47429329D01*
X33763793Y47217980D01*
X33763792Y47217973D01*
X33744723Y47000000D01*
X33763792Y46782028D01*
X33763793Y46782021D01*
X33820424Y46570672D01*
X33820427Y46570665D01*
X33912897Y46372362D01*
X33912899Y46372358D01*
X34038403Y46193121D01*
X34193120Y46038404D01*
X34372357Y45912900D01*
X34372360Y45912898D01*
X34378406Y45910079D01*
X34448331Y45855728D01*
X34487749Y45776421D01*
X34488853Y45687864D01*
X34451424Y45607599D01*
X34382876Y45551522D01*
X34378412Y45549371D01*
X34372609Y45546666D01*
X34372607Y45546664D01*
X34193447Y45421216D01*
X34193445Y45421213D01*
X34038787Y45266555D01*
X34038784Y45266553D01*
X33913336Y45087393D01*
X33913332Y45087386D01*
X33820895Y44889156D01*
X33820895Y44889155D01*
X33764289Y44677895D01*
X33764287Y44677884D01*
X33762722Y44660001D01*
X33762723Y44660000D01*
X34537617Y44660000D01*
X34500000Y44531889D01*
X34500000Y44388111D01*
X34537617Y44260000D01*
X33762723Y44260000D01*
X33764287Y44242117D01*
X33764289Y44242106D01*
X33820894Y44030849D01*
X33820895Y44030847D01*
X33913332Y43832612D01*
X33913334Y43832609D01*
X34038787Y43653445D01*
X34193444Y43498788D01*
X34372608Y43373335D01*
X34372612Y43373333D01*
X34378406Y43370631D01*
X34448331Y43316280D01*
X34487749Y43236972D01*
X34488853Y43148416D01*
X34451424Y43068150D01*
X34382876Y43012073D01*
X34378411Y43009923D01*
X34372363Y43007103D01*
X34193127Y42881602D01*
X34193119Y42881595D01*
X34038405Y42726881D01*
X34038398Y42726873D01*
X33912896Y42547636D01*
X33820426Y42349335D01*
X33820424Y42349329D01*
X33763793Y42137980D01*
X33763792Y42137973D01*
X33744723Y41920000D01*
X33763792Y41702028D01*
X33763793Y41702021D01*
X33820424Y41490672D01*
X33820427Y41490665D01*
X33912897Y41292362D01*
X33912899Y41292358D01*
X34038403Y41113121D01*
X34193120Y40958404D01*
X34372357Y40832900D01*
X34372360Y40832899D01*
X34372361Y40832898D01*
X34377815Y40830355D01*
X34447739Y40776004D01*
X34487157Y40696696D01*
X34488260Y40608140D01*
X34450832Y40527874D01*
X34382284Y40471797D01*
X34377820Y40469647D01*
X34372362Y40467102D01*
X34193127Y40341602D01*
X34193119Y40341595D01*
X34038405Y40186881D01*
X34038398Y40186873D01*
X33912896Y40007636D01*
X33820426Y39809335D01*
X33820424Y39809329D01*
X33763793Y39597980D01*
X33763792Y39597973D01*
X33744723Y39380000D01*
X33763792Y39162028D01*
X33763793Y39162021D01*
X33820424Y38950672D01*
X33820427Y38950665D01*
X33912897Y38752362D01*
X33912899Y38752358D01*
X34038403Y38573121D01*
X34193120Y38418404D01*
X34372357Y38292900D01*
X34372360Y38292899D01*
X34372361Y38292898D01*
X34377815Y38290355D01*
X34447739Y38236004D01*
X34487157Y38156696D01*
X34488260Y38068140D01*
X34450832Y37987874D01*
X34382284Y37931797D01*
X34377820Y37929647D01*
X34372362Y37927102D01*
X34193127Y37801602D01*
X34193119Y37801595D01*
X34038405Y37646881D01*
X34038398Y37646873D01*
X33912896Y37467636D01*
X33820426Y37269335D01*
X33820424Y37269329D01*
X33763793Y37057980D01*
X33763792Y37057973D01*
X33744723Y36840000D01*
X33763792Y36622028D01*
X33763793Y36622021D01*
X33820424Y36410672D01*
X33820427Y36410665D01*
X33912897Y36212362D01*
X33912899Y36212358D01*
X34038403Y36033121D01*
X34193120Y35878404D01*
X34372357Y35752900D01*
X34372360Y35752899D01*
X34372361Y35752898D01*
X34377815Y35750355D01*
X34447739Y35696004D01*
X34487157Y35616696D01*
X34488260Y35528140D01*
X34450832Y35447874D01*
X34382284Y35391797D01*
X34377820Y35389647D01*
X34372362Y35387102D01*
X34193127Y35261602D01*
X34193119Y35261595D01*
X34038405Y35106881D01*
X34038398Y35106873D01*
X33912896Y34927636D01*
X33820426Y34729335D01*
X33820424Y34729329D01*
X33763793Y34517980D01*
X33763792Y34517973D01*
X33744723Y34300000D01*
X33763792Y34082028D01*
X33763793Y34082021D01*
X33820424Y33870672D01*
X33820427Y33870665D01*
X33912897Y33672362D01*
X33912899Y33672358D01*
X34038403Y33493121D01*
X34193120Y33338404D01*
X34372357Y33212900D01*
X34372360Y33212899D01*
X34372361Y33212898D01*
X34377815Y33210355D01*
X34447739Y33156004D01*
X34487157Y33076696D01*
X34488260Y32988140D01*
X34450832Y32907874D01*
X34382284Y32851797D01*
X34377820Y32849647D01*
X34372362Y32847102D01*
X34193127Y32721602D01*
X34193119Y32721595D01*
X34038405Y32566881D01*
X34038398Y32566873D01*
X33912896Y32387636D01*
X33820426Y32189335D01*
X33820424Y32189329D01*
X33763793Y31977980D01*
X33763792Y31977973D01*
X33744723Y31760000D01*
X33763792Y31542028D01*
X33763793Y31542021D01*
X33820424Y31330672D01*
X33820427Y31330665D01*
X33912897Y31132362D01*
X33912899Y31132358D01*
X34038403Y30953121D01*
X34193120Y30798404D01*
X34372357Y30672900D01*
X34372360Y30672899D01*
X34372361Y30672898D01*
X34377815Y30670355D01*
X34447739Y30616004D01*
X34487157Y30536696D01*
X34488260Y30448140D01*
X34450832Y30367874D01*
X34382284Y30311797D01*
X34377820Y30309647D01*
X34372362Y30307102D01*
X34193127Y30181602D01*
X34193119Y30181595D01*
X34038405Y30026881D01*
X34038398Y30026873D01*
X33912896Y29847636D01*
X33820426Y29649335D01*
X33820424Y29649329D01*
X33763793Y29437980D01*
X33763792Y29437973D01*
X33744723Y29220000D01*
X33763792Y29002028D01*
X33763793Y29002021D01*
X33820424Y28790672D01*
X33820427Y28790665D01*
X33912897Y28592362D01*
X33912899Y28592358D01*
X34038403Y28413121D01*
X34193120Y28258404D01*
X34372357Y28132900D01*
X34372360Y28132899D01*
X34372361Y28132898D01*
X34377815Y28130355D01*
X34447739Y28076004D01*
X34487157Y27996696D01*
X34488260Y27908140D01*
X34450832Y27827874D01*
X34382284Y27771797D01*
X34377827Y27769651D01*
X34372364Y27767103D01*
X34372362Y27767102D01*
X34193127Y27641602D01*
X34193119Y27641595D01*
X34038405Y27486881D01*
X34038398Y27486873D01*
X33912896Y27307636D01*
X33820426Y27109335D01*
X33820424Y27109329D01*
X33763793Y26897980D01*
X33763792Y26897973D01*
X33744723Y26680000D01*
X33763792Y26462028D01*
X33763793Y26462021D01*
X33820424Y26250672D01*
X33820427Y26250665D01*
X33912897Y26052362D01*
X33912899Y26052358D01*
X34038403Y25873121D01*
X34193120Y25718404D01*
X34372357Y25592900D01*
X34372360Y25592899D01*
X34372361Y25592898D01*
X34377815Y25590355D01*
X34447739Y25536004D01*
X34487157Y25456696D01*
X34488260Y25368140D01*
X34450832Y25287874D01*
X34382284Y25231797D01*
X34377820Y25229647D01*
X34372362Y25227102D01*
X34193127Y25101602D01*
X34193119Y25101595D01*
X34038405Y24946881D01*
X34038398Y24946873D01*
X33912896Y24767636D01*
X33820426Y24569335D01*
X33820424Y24569329D01*
X33763793Y24357980D01*
X33763792Y24357973D01*
X33744723Y24140000D01*
X33763792Y23922028D01*
X33763793Y23922021D01*
X33820424Y23710672D01*
X33820427Y23710665D01*
X33912897Y23512362D01*
X33912899Y23512358D01*
X34038403Y23333121D01*
X34193120Y23178404D01*
X34372357Y23052900D01*
X34372360Y23052899D01*
X34372361Y23052898D01*
X34377815Y23050355D01*
X34447739Y22996004D01*
X34487157Y22916696D01*
X34488260Y22828140D01*
X34450832Y22747874D01*
X34382284Y22691797D01*
X34377820Y22689647D01*
X34372362Y22687102D01*
X34193127Y22561602D01*
X34193119Y22561595D01*
X34038405Y22406881D01*
X34038398Y22406873D01*
X33912896Y22227636D01*
X33820426Y22029335D01*
X33820424Y22029329D01*
X33763793Y21817980D01*
X33763792Y21817973D01*
X33744723Y21600000D01*
X33763792Y21382028D01*
X33763793Y21382021D01*
X33820424Y21170672D01*
X33820427Y21170665D01*
X33912897Y20972362D01*
X33912899Y20972358D01*
X34038403Y20793121D01*
X34193120Y20638404D01*
X34372357Y20512900D01*
X34372360Y20512899D01*
X34372361Y20512898D01*
X34377815Y20510355D01*
X34447739Y20456004D01*
X34487157Y20376696D01*
X34488260Y20288140D01*
X34450832Y20207874D01*
X34382284Y20151797D01*
X34377820Y20149647D01*
X34372362Y20147102D01*
X34193127Y20021602D01*
X34193119Y20021595D01*
X34038405Y19866881D01*
X34038398Y19866873D01*
X33912896Y19687636D01*
X33820426Y19489335D01*
X33820424Y19489329D01*
X33763793Y19277980D01*
X33763792Y19277973D01*
X33744723Y19060000D01*
X33763792Y18842028D01*
X33763793Y18842021D01*
X33820424Y18630672D01*
X33820427Y18630665D01*
X33912897Y18432362D01*
X33912899Y18432358D01*
X34038403Y18253121D01*
X34193120Y18098404D01*
X34372357Y17972900D01*
X34372360Y17972899D01*
X34372361Y17972898D01*
X34377815Y17970355D01*
X34447739Y17916004D01*
X34487157Y17836696D01*
X34488260Y17748140D01*
X34450832Y17667874D01*
X34382284Y17611797D01*
X34377820Y17609647D01*
X34372362Y17607102D01*
X34193127Y17481602D01*
X34193119Y17481595D01*
X34038405Y17326881D01*
X34038398Y17326873D01*
X33912896Y17147636D01*
X33820426Y16949335D01*
X33820424Y16949329D01*
X33763793Y16737980D01*
X33763792Y16737973D01*
X33744723Y16520000D01*
X33763792Y16302028D01*
X33763793Y16302021D01*
X33820424Y16090672D01*
X33820427Y16090665D01*
X33912897Y15892362D01*
X33912899Y15892358D01*
X34038403Y15713121D01*
X34193120Y15558404D01*
X34372357Y15432900D01*
X34372360Y15432899D01*
X34372361Y15432898D01*
X34377815Y15430355D01*
X34447739Y15376004D01*
X34487157Y15296696D01*
X34488260Y15208140D01*
X34450832Y15127874D01*
X34382284Y15071797D01*
X34377820Y15069647D01*
X34372362Y15067102D01*
X34193127Y14941602D01*
X34193119Y14941595D01*
X34038405Y14786881D01*
X34038398Y14786873D01*
X33912898Y14607638D01*
X33819522Y14407394D01*
X33765171Y14337470D01*
X33685863Y14298052D01*
X33597307Y14296949D01*
X33517041Y14334377D01*
X33498453Y14350782D01*
X29408786Y18440449D01*
X29361667Y18515437D01*
X29350500Y18581163D01*
X29350500Y19158981D01*
X29370207Y19245324D01*
X29425426Y19314565D01*
X29444729Y19328167D01*
X29476562Y19347876D01*
X29640981Y19497764D01*
X29775058Y19675311D01*
X29874229Y19874472D01*
X29935115Y20088464D01*
X29955487Y20308319D01*
X29955643Y20309999D01*
X29955643Y20310002D01*
X29946837Y20405032D01*
X29935115Y20531536D01*
X29874229Y20745528D01*
X29775058Y20944689D01*
X29775055Y20944693D01*
X29775054Y20944695D01*
X29640984Y21122232D01*
X29640981Y21122236D01*
X29476562Y21272124D01*
X29287401Y21389247D01*
X29079940Y21469618D01*
X28861243Y21510500D01*
X28638757Y21510500D01*
X28420060Y21469618D01*
X28212599Y21389247D01*
X28212598Y21389247D01*
X28212597Y21389246D01*
X28212595Y21389245D01*
X28023442Y21272127D01*
X28023440Y21272126D01*
X28023438Y21272124D01*
X27859019Y21122236D01*
X27859015Y21122232D01*
X27724945Y20944695D01*
X27724941Y20944688D01*
X27625773Y20745532D01*
X27625770Y20745526D01*
X27564885Y20531540D01*
X27564885Y20531536D01*
X27544357Y20310002D01*
X27544357Y20309999D01*
X23205643Y20309999D01*
X23205643Y20310002D01*
X23196837Y20405032D01*
X23185115Y20531536D01*
X23124229Y20745528D01*
X23025058Y20944689D01*
X23025055Y20944693D01*
X23025054Y20944695D01*
X22890984Y21122232D01*
X22890981Y21122236D01*
X22726562Y21272124D01*
X22537401Y21389247D01*
X22329940Y21469618D01*
X22111243Y21510500D01*
X21888757Y21510500D01*
X21670060Y21469618D01*
X21462599Y21389247D01*
X21462598Y21389247D01*
X21462597Y21389246D01*
X21462595Y21389245D01*
X21273442Y21272127D01*
X21273440Y21272126D01*
X21273438Y21272124D01*
X21109019Y21122236D01*
X21109015Y21122232D01*
X20974945Y20944695D01*
X20974941Y20944688D01*
X20875773Y20745532D01*
X20875770Y20745526D01*
X20814885Y20531540D01*
X20814885Y20531536D01*
X20794357Y20310002D01*
X20794357Y20309999D01*
X16205643Y20309999D01*
X16205643Y20310002D01*
X16196837Y20405032D01*
X16185115Y20531536D01*
X16124229Y20745528D01*
X16025058Y20944689D01*
X16025055Y20944693D01*
X16025054Y20944695D01*
X15890984Y21122232D01*
X15890981Y21122236D01*
X15726562Y21272124D01*
X15537401Y21389247D01*
X15329940Y21469618D01*
X15111243Y21510500D01*
X14888757Y21510500D01*
X14670060Y21469618D01*
X14462599Y21389247D01*
X14462598Y21389247D01*
X14462597Y21389246D01*
X14462595Y21389245D01*
X14273442Y21272127D01*
X14273440Y21272126D01*
X14273438Y21272124D01*
X14109019Y21122236D01*
X14109015Y21122232D01*
X13974945Y20944695D01*
X13974941Y20944688D01*
X13875773Y20745532D01*
X13875770Y20745526D01*
X13814885Y20531540D01*
X13814885Y20531536D01*
X13794357Y20310002D01*
X13794357Y20309999D01*
X10112510Y20309999D01*
X10111737Y20371855D01*
X10149164Y20452121D01*
X10217710Y20508200D01*
X10222190Y20510357D01*
X10223069Y20510768D01*
X10227639Y20512898D01*
X10406877Y20638402D01*
X10561598Y20793123D01*
X10687102Y20972361D01*
X10779575Y21170670D01*
X10836207Y21382023D01*
X10855277Y21600000D01*
X10836207Y21817977D01*
X10779575Y22029330D01*
X10756959Y22077829D01*
X10687103Y22227636D01*
X10681684Y22235375D01*
X10561598Y22406877D01*
X10406877Y22561598D01*
X10406876Y22561599D01*
X10406875Y22561600D01*
X10227642Y22687101D01*
X10227638Y22687103D01*
X10222190Y22689643D01*
X10152264Y22743992D01*
X10112844Y22823298D01*
X10111737Y22911855D01*
X10149164Y22992121D01*
X10217710Y23048200D01*
X10222190Y23050357D01*
X10223069Y23050768D01*
X10227639Y23052898D01*
X10406877Y23178402D01*
X10561598Y23333123D01*
X10687102Y23512361D01*
X10779575Y23710670D01*
X10836207Y23922023D01*
X10855277Y24140000D01*
X10836207Y24357977D01*
X10779575Y24569330D01*
X10687102Y24767638D01*
X10561598Y24946877D01*
X10406877Y25101598D01*
X10406876Y25101599D01*
X10406875Y25101600D01*
X10227642Y25227100D01*
X10227641Y25227101D01*
X10227639Y25227102D01*
X10221586Y25229925D01*
X10151664Y25284277D01*
X10112249Y25363586D01*
X10111148Y25452143D01*
X10148579Y25532407D01*
X10217128Y25588482D01*
X10221608Y25590639D01*
X10227393Y25593337D01*
X10406555Y25718788D01*
X10561212Y25873445D01*
X10686665Y26052609D01*
X10686667Y26052612D01*
X10779104Y26250847D01*
X10779105Y26250849D01*
X10835710Y26462106D01*
X10835712Y26462117D01*
X10837277Y26480000D01*
X10062383Y26480000D01*
X10100000Y26608111D01*
X10100000Y26751889D01*
X10062383Y26880000D01*
X10837277Y26880000D01*
X10837277Y26880001D01*
X10835712Y26897884D01*
X10835710Y26897895D01*
X10779104Y27109155D01*
X10779104Y27109156D01*
X10686667Y27307386D01*
X10686663Y27307393D01*
X10561215Y27486553D01*
X10406555Y27641213D01*
X10227391Y27766666D01*
X10227387Y27766668D01*
X10221598Y27769367D01*
X10151672Y27823716D01*
X10112252Y27903022D01*
X10111145Y27991579D01*
X10148572Y28071845D01*
X10217118Y28127924D01*
X10221535Y28130052D01*
X10227639Y28132898D01*
X10406877Y28258402D01*
X10561598Y28413123D01*
X10687102Y28592361D01*
X10779575Y28790670D01*
X10836207Y29002023D01*
X10855277Y29220000D01*
X10836207Y29437977D01*
X10779575Y29649330D01*
X10766218Y29677973D01*
X10687103Y29847636D01*
X10657905Y29889335D01*
X10561598Y30026877D01*
X10406877Y30181598D01*
X10406876Y30181599D01*
X10406875Y30181600D01*
X10227642Y30307101D01*
X10227638Y30307103D01*
X10222190Y30309643D01*
X10152264Y30363992D01*
X10112844Y30443298D01*
X10111737Y30531855D01*
X10149164Y30612121D01*
X10217710Y30668200D01*
X10222190Y30670357D01*
X10223069Y30670768D01*
X10227639Y30672898D01*
X10406877Y30798402D01*
X10561598Y30953123D01*
X10687102Y31132361D01*
X10779575Y31330670D01*
X10836207Y31542023D01*
X10855277Y31760000D01*
X10836207Y31977977D01*
X10779575Y32189330D01*
X10766218Y32217973D01*
X10687103Y32387636D01*
X10657905Y32429335D01*
X10561598Y32566877D01*
X10406877Y32721598D01*
X10406876Y32721599D01*
X10406875Y32721600D01*
X10227642Y32847101D01*
X10227638Y32847103D01*
X10222190Y32849643D01*
X10152264Y32903992D01*
X10112844Y32983298D01*
X10111737Y33071855D01*
X10149164Y33152121D01*
X10217710Y33208200D01*
X10222190Y33210357D01*
X10223069Y33210768D01*
X10227639Y33212898D01*
X10406877Y33338402D01*
X10561598Y33493123D01*
X10687102Y33672361D01*
X10779575Y33870670D01*
X10836207Y34082023D01*
X10855277Y34300000D01*
X10836207Y34517977D01*
X10779575Y34729330D01*
X10766218Y34757973D01*
X10687103Y34927636D01*
X10662954Y34962124D01*
X10561598Y35106877D01*
X10406877Y35261598D01*
X10406876Y35261599D01*
X10406875Y35261600D01*
X10227642Y35387101D01*
X10227638Y35387103D01*
X10222190Y35389643D01*
X10152264Y35443992D01*
X10112844Y35523298D01*
X10111737Y35611855D01*
X10149164Y35692121D01*
X10217710Y35748200D01*
X10222190Y35750357D01*
X10223069Y35750768D01*
X10227639Y35752898D01*
X10406877Y35878402D01*
X10561598Y36033123D01*
X10687102Y36212361D01*
X10779575Y36410670D01*
X10836207Y36622023D01*
X10855277Y36840000D01*
X10836207Y37057977D01*
X10779575Y37269330D01*
X10766471Y37297431D01*
X10687103Y37467636D01*
X10657905Y37509335D01*
X10561598Y37646877D01*
X10406877Y37801598D01*
X10406876Y37801599D01*
X10406875Y37801600D01*
X10227642Y37927101D01*
X10227638Y37927103D01*
X10222190Y37929643D01*
X10152264Y37983992D01*
X10112844Y38063298D01*
X10111737Y38151855D01*
X10149164Y38232121D01*
X10217710Y38288200D01*
X10222190Y38290357D01*
X10223069Y38290768D01*
X10227639Y38292898D01*
X10406877Y38418402D01*
X10561598Y38573123D01*
X10687102Y38752361D01*
X10779575Y38950670D01*
X10836207Y39162023D01*
X10855277Y39380000D01*
X10836207Y39597977D01*
X10779575Y39809330D01*
X10766218Y39837973D01*
X10687103Y40007636D01*
X10657905Y40049335D01*
X10561598Y40186877D01*
X10406877Y40341598D01*
X10406876Y40341599D01*
X10406875Y40341600D01*
X10227642Y40467101D01*
X10227638Y40467103D01*
X10222190Y40469643D01*
X10152264Y40523992D01*
X10112844Y40603298D01*
X10111737Y40691855D01*
X10149164Y40772121D01*
X10217710Y40828200D01*
X10222190Y40830357D01*
X10223069Y40830768D01*
X10227639Y40832898D01*
X10406877Y40958402D01*
X10561598Y41113123D01*
X10687102Y41292361D01*
X10779575Y41490670D01*
X10836207Y41702023D01*
X10855277Y41920000D01*
X10836207Y42137977D01*
X10779575Y42349330D01*
X10766254Y42377896D01*
X10687103Y42547636D01*
X10660974Y42584952D01*
X10561598Y42726877D01*
X10406877Y42881598D01*
X10406876Y42881599D01*
X10406875Y42881600D01*
X10227642Y43007101D01*
X10227638Y43007103D01*
X10222190Y43009643D01*
X10152264Y43063992D01*
X10112844Y43143298D01*
X10111737Y43231855D01*
X10149164Y43312121D01*
X10217710Y43368200D01*
X10222190Y43370357D01*
X10223069Y43370768D01*
X10227639Y43372898D01*
X10406877Y43498402D01*
X10561598Y43653123D01*
X10687102Y43832361D01*
X10779575Y44030670D01*
X10836207Y44242023D01*
X10855277Y44460000D01*
X10836207Y44677977D01*
X10779575Y44889330D01*
X10687102Y45087638D01*
X10561825Y45266553D01*
X10561601Y45266873D01*
X10561599Y45266875D01*
X10561598Y45266877D01*
X10406877Y45421598D01*
X10406876Y45421599D01*
X10406875Y45421600D01*
X10227642Y45547101D01*
X10227638Y45547103D01*
X10222190Y45549643D01*
X10152264Y45603992D01*
X10112844Y45683298D01*
X10111737Y45771855D01*
X10149164Y45852121D01*
X10217710Y45908200D01*
X10222190Y45910357D01*
X10223069Y45910768D01*
X10227639Y45912898D01*
X10406877Y46038402D01*
X10561598Y46193123D01*
X10687102Y46372361D01*
X10779575Y46570670D01*
X10836207Y46782023D01*
X10855277Y47000000D01*
X10836207Y47217977D01*
X10779575Y47429330D01*
X10687102Y47627638D01*
X10561598Y47806877D01*
X10406877Y47961598D01*
X10406876Y47961599D01*
X10406875Y47961600D01*
X10227642Y48087101D01*
X10227638Y48087103D01*
X10222190Y48089643D01*
X10152264Y48143992D01*
X10112844Y48223298D01*
X10111737Y48311855D01*
X10149164Y48392121D01*
X10217710Y48448200D01*
X10222190Y48450357D01*
X10223069Y48450768D01*
X10227639Y48452898D01*
X10406877Y48578402D01*
X10561598Y48733123D01*
X10687102Y48912361D01*
X10779575Y49110670D01*
X10836207Y49322023D01*
X10855277Y49540000D01*
X10836207Y49757977D01*
X10779575Y49969330D01*
X10688009Y50165692D01*
X10687103Y50167636D01*
X10561601Y50346873D01*
X10561599Y50346875D01*
X10561598Y50346877D01*
X10406877Y50501598D01*
X10406876Y50501599D01*
X10406875Y50501600D01*
X10227642Y50627101D01*
X10227638Y50627103D01*
X10222190Y50629643D01*
X10152264Y50683992D01*
X10112844Y50763298D01*
X10111737Y50851855D01*
X10149164Y50932121D01*
X10217710Y50988200D01*
X10222190Y50990357D01*
X10223069Y50990768D01*
X10227639Y50992898D01*
X10406877Y51118402D01*
X10561598Y51273123D01*
X10687102Y51452361D01*
X10779575Y51650670D01*
X10836207Y51862023D01*
X10855277Y52080000D01*
X10836207Y52297977D01*
X10779575Y52509330D01*
X10687102Y52707638D01*
X10561598Y52886877D01*
X10406877Y53041598D01*
X10406876Y53041599D01*
X10406875Y53041600D01*
X10227642Y53167101D01*
X10227638Y53167103D01*
X10222190Y53169643D01*
X10152264Y53223992D01*
X10112844Y53303298D01*
X10111737Y53391855D01*
X10149164Y53472121D01*
X10217710Y53528200D01*
X10222190Y53530357D01*
X10223069Y53530768D01*
X10227639Y53532898D01*
X10406877Y53658402D01*
X10561598Y53813123D01*
X10687102Y53992361D01*
X10779575Y54190670D01*
X10836207Y54402023D01*
X10855277Y54620000D01*
X10836207Y54837977D01*
X10779575Y55049330D01*
X10687102Y55247638D01*
X10561598Y55426877D01*
X10406877Y55581598D01*
X10406876Y55581599D01*
X10406875Y55581600D01*
X10227642Y55707101D01*
X10227638Y55707103D01*
X10222190Y55709643D01*
X10152264Y55763992D01*
X10112844Y55843298D01*
X10111737Y55931855D01*
X10149164Y56012121D01*
X10217710Y56068200D01*
X10222190Y56070357D01*
X10223069Y56070768D01*
X10227639Y56072898D01*
X10406877Y56198402D01*
X10561598Y56353123D01*
X10687102Y56532361D01*
X10779575Y56730670D01*
X10836207Y56942023D01*
X10855277Y57160000D01*
X10836207Y57377977D01*
X10779575Y57589330D01*
X10719623Y57717896D01*
X10687103Y57787636D01*
X10561601Y57966873D01*
X10561599Y57966875D01*
X10561598Y57966877D01*
X10406877Y58121598D01*
X10406876Y58121599D01*
X10406875Y58121600D01*
X10227642Y58247101D01*
X10227638Y58247103D01*
X10222190Y58249643D01*
X10152264Y58303992D01*
X10112844Y58383298D01*
X10111737Y58471855D01*
X10149164Y58552121D01*
X10217710Y58608200D01*
X10222190Y58610357D01*
X10223069Y58610768D01*
X10227639Y58612898D01*
X10406877Y58738402D01*
X10561598Y58893123D01*
X10687102Y59072361D01*
X10779575Y59270670D01*
X10836207Y59482023D01*
X10855277Y59700000D01*
X10836207Y59917977D01*
X10779575Y60129330D01*
X10687102Y60327638D01*
X10561825Y60506553D01*
X10561601Y60506873D01*
X10561599Y60506875D01*
X10561598Y60506877D01*
X10406877Y60661598D01*
X10406876Y60661599D01*
X10406875Y60661600D01*
X10227642Y60787101D01*
X10227638Y60787103D01*
X10029335Y60879573D01*
X10029328Y60879576D01*
X9817979Y60936207D01*
X9817972Y60936208D01*
X9600000Y60955277D01*
X9382027Y60936208D01*
X9382020Y60936207D01*
X9170671Y60879576D01*
X9170665Y60879574D01*
X8972364Y60787104D01*
X8793127Y60661602D01*
X8793119Y60661595D01*
X8638405Y60506881D01*
X8638398Y60506873D01*
X8512896Y60327636D01*
X8420426Y60129335D01*
X8420424Y60129329D01*
X8363793Y59917980D01*
X8363792Y59917973D01*
X8344723Y59700000D01*
X8363792Y59482028D01*
X8363793Y59482021D01*
X8420424Y59270672D01*
X8420427Y59270665D01*
X8512897Y59072362D01*
X8512899Y59072358D01*
X8638403Y58893121D01*
X8793120Y58738404D01*
X8972357Y58612900D01*
X8972360Y58612899D01*
X8972361Y58612898D01*
X8977815Y58610355D01*
X9047739Y58556004D01*
X9087157Y58476696D01*
X9088260Y58388140D01*
X9050832Y58307874D01*
X8982284Y58251797D01*
X8977820Y58249647D01*
X8972362Y58247102D01*
X8793127Y58121602D01*
X8793119Y58121595D01*
X8638405Y57966881D01*
X8638398Y57966873D01*
X8512896Y57787636D01*
X8420426Y57589335D01*
X8420424Y57589329D01*
X8363793Y57377980D01*
X8363792Y57377973D01*
X8344723Y57160000D01*
X8363792Y56942028D01*
X8363793Y56942021D01*
X8420424Y56730672D01*
X8420427Y56730665D01*
X8512897Y56532362D01*
X8512899Y56532358D01*
X8638403Y56353121D01*
X8793120Y56198404D01*
X8972357Y56072900D01*
X8972360Y56072899D01*
X8972361Y56072898D01*
X8977815Y56070355D01*
X9047739Y56016004D01*
X9087157Y55936696D01*
X9088260Y55848140D01*
X9050832Y55767874D01*
X8982284Y55711797D01*
X8977820Y55709647D01*
X8972362Y55707102D01*
X8793127Y55581602D01*
X8793119Y55581595D01*
X8638405Y55426881D01*
X8638398Y55426873D01*
X8512896Y55247636D01*
X8420426Y55049335D01*
X8420424Y55049329D01*
X8363793Y54837980D01*
X8363792Y54837973D01*
X8344723Y54620000D01*
X8363792Y54402028D01*
X8363793Y54402021D01*
X8420424Y54190672D01*
X8420427Y54190665D01*
X8512897Y53992362D01*
X8512899Y53992358D01*
X8638403Y53813121D01*
X8793120Y53658404D01*
X8972357Y53532900D01*
X8972360Y53532899D01*
X8972361Y53532898D01*
X8977815Y53530355D01*
X9047739Y53476004D01*
X9087157Y53396696D01*
X9088260Y53308140D01*
X9050832Y53227874D01*
X8982284Y53171797D01*
X8977820Y53169647D01*
X8972362Y53167102D01*
X8793127Y53041602D01*
X8793119Y53041595D01*
X8638405Y52886881D01*
X8638398Y52886873D01*
X8512896Y52707636D01*
X8420426Y52509335D01*
X8420424Y52509329D01*
X8363793Y52297980D01*
X8363792Y52297973D01*
X8344723Y52080000D01*
X8363792Y51862028D01*
X8363793Y51862021D01*
X8420424Y51650672D01*
X8420427Y51650665D01*
X8512897Y51452362D01*
X8512899Y51452358D01*
X8638403Y51273121D01*
X8793120Y51118404D01*
X8972357Y50992900D01*
X8972360Y50992899D01*
X8972361Y50992898D01*
X8977815Y50990355D01*
X9047739Y50936004D01*
X9087157Y50856696D01*
X9088260Y50768140D01*
X9050832Y50687874D01*
X8982284Y50631797D01*
X8977820Y50629647D01*
X8972362Y50627102D01*
X8793127Y50501602D01*
X8793119Y50501595D01*
X8638405Y50346881D01*
X8638398Y50346873D01*
X8512896Y50167636D01*
X8420426Y49969335D01*
X8420424Y49969329D01*
X8363793Y49757980D01*
X8363792Y49757973D01*
X8344723Y49540000D01*
X8363792Y49322028D01*
X8363793Y49322021D01*
X8420424Y49110672D01*
X8420427Y49110665D01*
X8512897Y48912362D01*
X8512899Y48912358D01*
X8638403Y48733121D01*
X8793120Y48578404D01*
X8972357Y48452900D01*
X8972360Y48452899D01*
X8972361Y48452898D01*
X8977815Y48450355D01*
X9047739Y48396004D01*
X9087157Y48316696D01*
X9088260Y48228140D01*
X9050832Y48147874D01*
X8982284Y48091797D01*
X8977820Y48089647D01*
X8972362Y48087102D01*
X8793127Y47961602D01*
X8793119Y47961595D01*
X8638405Y47806881D01*
X8638398Y47806873D01*
X8512896Y47627636D01*
X8420426Y47429335D01*
X8420424Y47429329D01*
X8363793Y47217980D01*
X8363792Y47217973D01*
X8344723Y47000000D01*
X8363792Y46782028D01*
X8363793Y46782021D01*
X8420424Y46570672D01*
X8420427Y46570665D01*
X8512897Y46372362D01*
X8512899Y46372358D01*
X8638403Y46193121D01*
X8793120Y46038404D01*
X8972357Y45912900D01*
X8972360Y45912899D01*
X8972361Y45912898D01*
X8977815Y45910355D01*
X9047739Y45856004D01*
X9087157Y45776696D01*
X9088260Y45688140D01*
X9050832Y45607874D01*
X8982284Y45551797D01*
X8977827Y45549651D01*
X8972364Y45547103D01*
X8972362Y45547102D01*
X8793127Y45421602D01*
X8793119Y45421595D01*
X8638405Y45266881D01*
X8638398Y45266873D01*
X8512896Y45087636D01*
X8420426Y44889335D01*
X8420424Y44889329D01*
X8363793Y44677980D01*
X8363792Y44677973D01*
X8344723Y44460000D01*
X8363792Y44242028D01*
X8363793Y44242021D01*
X8420424Y44030672D01*
X8420427Y44030665D01*
X8512897Y43832362D01*
X8512899Y43832358D01*
X8638403Y43653121D01*
X8793120Y43498404D01*
X8972357Y43372900D01*
X8972360Y43372899D01*
X8972361Y43372898D01*
X8977815Y43370355D01*
X9047739Y43316004D01*
X9087157Y43236696D01*
X9088260Y43148140D01*
X9050832Y43067874D01*
X8982284Y43011797D01*
X8977820Y43009647D01*
X8972362Y43007102D01*
X8793127Y42881602D01*
X8793119Y42881595D01*
X8638405Y42726881D01*
X8638398Y42726873D01*
X8512896Y42547636D01*
X8420426Y42349335D01*
X8420424Y42349329D01*
X8363793Y42137980D01*
X8363792Y42137973D01*
X8344723Y41920000D01*
X8363792Y41702028D01*
X8363793Y41702021D01*
X8420424Y41490672D01*
X8420427Y41490665D01*
X8512897Y41292362D01*
X8512899Y41292358D01*
X8638403Y41113121D01*
X8793120Y40958404D01*
X8972357Y40832900D01*
X8972360Y40832899D01*
X8972361Y40832898D01*
X8977815Y40830355D01*
X9047739Y40776004D01*
X9087157Y40696696D01*
X9088260Y40608140D01*
X9050832Y40527874D01*
X8982284Y40471797D01*
X8977820Y40469647D01*
X8972362Y40467102D01*
X8793127Y40341602D01*
X8793119Y40341595D01*
X8638405Y40186881D01*
X8638398Y40186873D01*
X8512896Y40007636D01*
X8420426Y39809335D01*
X8420424Y39809329D01*
X8363793Y39597980D01*
X8363792Y39597973D01*
X8344723Y39380000D01*
X8363792Y39162028D01*
X8363793Y39162021D01*
X8420424Y38950672D01*
X8420427Y38950665D01*
X8512897Y38752362D01*
X8512899Y38752358D01*
X8638403Y38573121D01*
X8793120Y38418404D01*
X8972357Y38292900D01*
X8972360Y38292899D01*
X8972361Y38292898D01*
X8977815Y38290355D01*
X9047739Y38236004D01*
X9087157Y38156696D01*
X9088260Y38068140D01*
X9050832Y37987874D01*
X8982284Y37931797D01*
X8977820Y37929647D01*
X8972362Y37927102D01*
X8793127Y37801602D01*
X8793119Y37801595D01*
X8638405Y37646881D01*
X8638398Y37646873D01*
X8512896Y37467636D01*
X8420426Y37269335D01*
X8420424Y37269329D01*
X8363793Y37057980D01*
X8363792Y37057973D01*
X8344723Y36840000D01*
X8363792Y36622028D01*
X8363793Y36622021D01*
X8420424Y36410672D01*
X8420427Y36410665D01*
X8512897Y36212362D01*
X8512899Y36212358D01*
X8638403Y36033121D01*
X8793120Y35878404D01*
X8972357Y35752900D01*
X8972360Y35752899D01*
X8972361Y35752898D01*
X8977815Y35750355D01*
X9047739Y35696004D01*
X9087157Y35616696D01*
X9088260Y35528140D01*
X9050832Y35447874D01*
X8982284Y35391797D01*
X8977820Y35389647D01*
X8972362Y35387102D01*
X8793127Y35261602D01*
X8793119Y35261595D01*
X8638405Y35106881D01*
X8638398Y35106873D01*
X8512896Y34927636D01*
X8420426Y34729335D01*
X8420424Y34729329D01*
X8363793Y34517980D01*
X8363792Y34517973D01*
X8344723Y34300000D01*
X8363792Y34082028D01*
X8363793Y34082021D01*
X8420424Y33870672D01*
X8420427Y33870665D01*
X8512897Y33672362D01*
X8512899Y33672358D01*
X8638403Y33493121D01*
X8793120Y33338404D01*
X8972357Y33212900D01*
X8972360Y33212899D01*
X8972361Y33212898D01*
X8977815Y33210355D01*
X9047739Y33156004D01*
X9087157Y33076696D01*
X9088260Y32988140D01*
X9050832Y32907874D01*
X8982284Y32851797D01*
X8977820Y32849647D01*
X8972362Y32847102D01*
X8793127Y32721602D01*
X8793119Y32721595D01*
X8638405Y32566881D01*
X8638398Y32566873D01*
X8512896Y32387636D01*
X8420426Y32189335D01*
X8420424Y32189329D01*
X8363793Y31977980D01*
X8363792Y31977973D01*
X8344723Y31760000D01*
X8363792Y31542028D01*
X8363793Y31542021D01*
X8420424Y31330672D01*
X8420427Y31330665D01*
X8512897Y31132362D01*
X8512899Y31132358D01*
X8638403Y30953121D01*
X8793120Y30798404D01*
X8972357Y30672900D01*
X8972360Y30672899D01*
X8972361Y30672898D01*
X8977815Y30670355D01*
X9047739Y30616004D01*
X9087157Y30536696D01*
X9088260Y30448140D01*
X9050832Y30367874D01*
X8982284Y30311797D01*
X8977820Y30309647D01*
X8972362Y30307102D01*
X8793127Y30181602D01*
X8793119Y30181595D01*
X8638405Y30026881D01*
X8638398Y30026873D01*
X8512896Y29847636D01*
X8420426Y29649335D01*
X8420424Y29649329D01*
X8363793Y29437980D01*
X8363792Y29437973D01*
X8344723Y29220000D01*
X8363792Y29002028D01*
X8363793Y29002021D01*
X8420424Y28790672D01*
X8420427Y28790665D01*
X8512897Y28592362D01*
X8512899Y28592358D01*
X8638403Y28413121D01*
X8793120Y28258404D01*
X8972357Y28132900D01*
X8972360Y28132898D01*
X8978406Y28130079D01*
X9048331Y28075728D01*
X9087749Y27996421D01*
X9088853Y27907864D01*
X9051424Y27827599D01*
X8982876Y27771522D01*
X8978412Y27769371D01*
X8972609Y27766666D01*
X8972607Y27766664D01*
X8793447Y27641216D01*
X8793445Y27641213D01*
X8638787Y27486555D01*
X8638784Y27486553D01*
X8513336Y27307393D01*
X8513332Y27307386D01*
X8420895Y27109156D01*
X8420895Y27109155D01*
X8364289Y26897895D01*
X8364287Y26897884D01*
X8362722Y26880001D01*
X8362723Y26880000D01*
X9137617Y26880000D01*
X9100000Y26751889D01*
X9100000Y26608111D01*
X9137617Y26480000D01*
X8362723Y26480000D01*
X8364287Y26462117D01*
X8364289Y26462106D01*
X8420894Y26250849D01*
X8420895Y26250847D01*
X8513332Y26052612D01*
X8513334Y26052609D01*
X8638787Y25873445D01*
X8793444Y25718788D01*
X8972608Y25593335D01*
X8972612Y25593333D01*
X8978406Y25590631D01*
X9048331Y25536280D01*
X9087749Y25456972D01*
X9088853Y25368416D01*
X9051424Y25288150D01*
X8982876Y25232073D01*
X8978411Y25229923D01*
X8972363Y25227103D01*
X8793127Y25101602D01*
X8793119Y25101595D01*
X8638405Y24946881D01*
X8638398Y24946873D01*
X8512896Y24767636D01*
X8420426Y24569335D01*
X8420424Y24569329D01*
X8363793Y24357980D01*
X8363792Y24357973D01*
X8344723Y24140000D01*
X8363792Y23922028D01*
X8363793Y23922021D01*
X8420424Y23710672D01*
X8420427Y23710665D01*
X8512897Y23512362D01*
X8512899Y23512358D01*
X8638403Y23333121D01*
X8793120Y23178404D01*
X8972357Y23052900D01*
X8972360Y23052899D01*
X8972361Y23052898D01*
X8977815Y23050355D01*
X9047739Y22996004D01*
X9087157Y22916696D01*
X9088260Y22828140D01*
X9050832Y22747874D01*
X8982284Y22691797D01*
X8977820Y22689647D01*
X8972362Y22687102D01*
X8793127Y22561602D01*
X8793119Y22561595D01*
X8638405Y22406881D01*
X8638398Y22406873D01*
X8512896Y22227636D01*
X8420426Y22029335D01*
X8420424Y22029329D01*
X8363793Y21817980D01*
X8363792Y21817973D01*
X8344723Y21600000D01*
X8363792Y21382028D01*
X8363793Y21382021D01*
X8420424Y21170672D01*
X8420427Y21170665D01*
X8512897Y20972362D01*
X8512899Y20972358D01*
X8638403Y20793121D01*
X8793120Y20638404D01*
X8972357Y20512900D01*
X8972360Y20512899D01*
X8972361Y20512898D01*
X8977815Y20510355D01*
X9047739Y20456004D01*
X9087157Y20376696D01*
X9088260Y20288140D01*
X9050832Y20207874D01*
X8982284Y20151797D01*
X8977820Y20149647D01*
X8972362Y20147102D01*
X8793127Y20021602D01*
X8793119Y20021595D01*
X8638405Y19866881D01*
X8638398Y19866873D01*
X8512896Y19687636D01*
X8420426Y19489335D01*
X8420424Y19489329D01*
X8363793Y19277980D01*
X8363792Y19277973D01*
X8344723Y19060000D01*
X8363792Y18842028D01*
X8363793Y18842021D01*
X8420424Y18630672D01*
X8420427Y18630665D01*
X8512897Y18432362D01*
X8512899Y18432358D01*
X8638403Y18253121D01*
X8793120Y18098404D01*
X8972357Y17972900D01*
X8972360Y17972899D01*
X8972361Y17972898D01*
X8977815Y17970355D01*
X9047739Y17916004D01*
X9087157Y17836696D01*
X9088260Y17748140D01*
X9050832Y17667874D01*
X8982284Y17611797D01*
X8977820Y17609647D01*
X8972362Y17607102D01*
X8793127Y17481602D01*
X8793119Y17481595D01*
X8638405Y17326881D01*
X8638398Y17326873D01*
X8512896Y17147636D01*
X8420426Y16949335D01*
X8420424Y16949329D01*
X8363793Y16737980D01*
X8363792Y16737973D01*
X8344723Y16520000D01*
X8363792Y16302028D01*
X8363793Y16302021D01*
X8420424Y16090672D01*
X8420427Y16090665D01*
X8512897Y15892362D01*
X8512899Y15892358D01*
X8638403Y15713121D01*
X8793120Y15558404D01*
X8972357Y15432900D01*
X8972360Y15432899D01*
X8972361Y15432898D01*
X8977815Y15430355D01*
X9047739Y15376004D01*
X9087157Y15296696D01*
X9088260Y15208140D01*
X9050832Y15127874D01*
X8982284Y15071797D01*
X8977820Y15069647D01*
X8972362Y15067102D01*
X8793127Y14941602D01*
X8793119Y14941595D01*
X8638405Y14786881D01*
X8638398Y14786873D01*
X8512896Y14607636D01*
X8420426Y14409335D01*
X8420424Y14409329D01*
X8363793Y14197980D01*
X8363792Y14197973D01*
X8344723Y13980000D01*
X500Y13980000D01*
X500Y65919589D01*
X18764Y65999613D01*
X15934Y66003571D01*
X15920Y66003643D01*
X379379Y66003643D01*
X398227Y65930004D01*
X414308Y65623145D01*
X414309Y65623131D01*
X473345Y65250395D01*
X473349Y65250378D01*
X571019Y64885864D01*
X571023Y64885853D01*
X706260Y64533548D01*
X706265Y64533538D01*
X706266Y64533535D01*
X877597Y64197279D01*
X1083137Y63880775D01*
X1320635Y63587489D01*
X1587489Y63320635D01*
X1880775Y63083137D01*
X2197279Y62877597D01*
X2533535Y62706266D01*
X2533542Y62706264D01*
X2533547Y62706261D01*
X2885852Y62571024D01*
X2885863Y62571020D01*
X3086475Y62517267D01*
X3250387Y62473347D01*
X3623129Y62414310D01*
X3623132Y62414310D01*
X3623144Y62414309D01*
X3999995Y62394559D01*
X4000000Y62394559D01*
X4000005Y62394559D01*
X4376855Y62414309D01*
X4376863Y62414310D01*
X4376871Y62414310D01*
X4749613Y62473347D01*
X5114143Y62571022D01*
X5466465Y62706266D01*
X5802721Y62877597D01*
X6119225Y63083137D01*
X6412511Y63320635D01*
X6679365Y63587489D01*
X6916863Y63880775D01*
X7122403Y64197279D01*
X7293734Y64533535D01*
X7428978Y64885857D01*
X7526653Y65250387D01*
X7585690Y65623129D01*
X7605441Y65999995D01*
X62394559Y65999995D01*
X62414308Y65623145D01*
X62414309Y65623131D01*
X62473345Y65250395D01*
X62473349Y65250378D01*
X62571019Y64885864D01*
X62571023Y64885853D01*
X62706260Y64533548D01*
X62706265Y64533538D01*
X62706266Y64533535D01*
X62877597Y64197279D01*
X63083137Y63880775D01*
X63320635Y63587489D01*
X63587489Y63320635D01*
X63880775Y63083137D01*
X64197279Y62877597D01*
X64533535Y62706266D01*
X64533542Y62706264D01*
X64533547Y62706261D01*
X64885852Y62571024D01*
X64885863Y62571020D01*
X65086475Y62517267D01*
X65250387Y62473347D01*
X65623129Y62414310D01*
X65623132Y62414310D01*
X65623144Y62414309D01*
X65999995Y62394559D01*
X66000000Y62394559D01*
X66000005Y62394559D01*
X66376855Y62414309D01*
X66376863Y62414310D01*
X66376871Y62414310D01*
X66749613Y62473347D01*
X67114143Y62571022D01*
X67466465Y62706266D01*
X67802721Y62877597D01*
X68119225Y63083137D01*
X68412511Y63320635D01*
X68679365Y63587489D01*
X68916863Y63880775D01*
X69122403Y64197279D01*
X69293734Y64533535D01*
X69428978Y64885857D01*
X69526653Y65250387D01*
X69585690Y65623129D01*
X69601773Y65930004D01*
X69620620Y65996359D01*
X69601773Y66069997D01*
X69585691Y66376856D01*
X69585690Y66376870D01*
X69526654Y66749606D01*
X69526653Y66749613D01*
X69428978Y67114143D01*
X69293734Y67466465D01*
X69122403Y67802720D01*
X69122400Y67802726D01*
X68916861Y68119228D01*
X68679364Y68412512D01*
X68412511Y68679365D01*
X68119231Y68916858D01*
X68119225Y68916863D01*
X67802721Y69122403D01*
X67802718Y69122405D01*
X67466473Y69293730D01*
X67466452Y69293740D01*
X67114147Y69428977D01*
X67114136Y69428981D01*
X66749622Y69526651D01*
X66749605Y69526655D01*
X66376869Y69585691D01*
X66376855Y69585692D01*
X66069996Y69601773D01*
X66003641Y69620621D01*
X65930004Y69601773D01*
X65623144Y69585692D01*
X65623130Y69585691D01*
X65250394Y69526655D01*
X65250377Y69526651D01*
X64885863Y69428981D01*
X64885852Y69428977D01*
X64533547Y69293740D01*
X64533526Y69293730D01*
X64197281Y69122405D01*
X64197274Y69122401D01*
X63880772Y68916862D01*
X63587488Y68679365D01*
X63320635Y68412512D01*
X63083138Y68119228D01*
X62877599Y67802726D01*
X62877595Y67802719D01*
X62706270Y67466474D01*
X62706260Y67466453D01*
X62571023Y67114148D01*
X62571019Y67114137D01*
X62473349Y66749623D01*
X62473345Y66749606D01*
X62414309Y66376870D01*
X62414308Y66376856D01*
X62394559Y66000006D01*
X62394559Y65999995D01*
X7605441Y65999995D01*
X7605441Y66000000D01*
X7585690Y66376871D01*
X7526653Y66749613D01*
X7428978Y67114143D01*
X7293734Y67466465D01*
X7122403Y67802720D01*
X7122400Y67802726D01*
X6916861Y68119228D01*
X6679364Y68412512D01*
X6412511Y68679365D01*
X6119231Y68916858D01*
X6119225Y68916863D01*
X5802721Y69122403D01*
X5802718Y69122405D01*
X5466473Y69293730D01*
X5466452Y69293740D01*
X5114147Y69428977D01*
X5114136Y69428981D01*
X4749622Y69526651D01*
X4749605Y69526655D01*
X4376869Y69585691D01*
X4376855Y69585692D01*
X4069996Y69601773D01*
X4003641Y69620621D01*
X3930004Y69601773D01*
X3623144Y69585692D01*
X3623130Y69585691D01*
X3250394Y69526655D01*
X3250377Y69526651D01*
X2885863Y69428981D01*
X2885852Y69428977D01*
X2533547Y69293740D01*
X2533526Y69293730D01*
X2197281Y69122405D01*
X2197274Y69122401D01*
X1880772Y68916862D01*
X1587488Y68679365D01*
X1320635Y68412512D01*
X1083138Y68119228D01*
X877599Y67802726D01*
X877595Y67802719D01*
X706270Y67466474D01*
X706260Y67466453D01*
X571023Y67114148D01*
X571019Y67114137D01*
X473349Y66749623D01*
X473345Y66749606D01*
X414309Y66376870D01*
X414308Y66376856D01*
X398227Y66069997D01*
X379379Y66003643D01*
X15920Y66003643D01*
X500Y66080412D01*
X500Y69800500D01*
X20207Y69886843D01*
X75426Y69956084D01*
X155218Y69994511D01*
X199500Y69999500D01*
X3919589Y69999500D01*
X3999612Y69981236D01*
G37*
G04 #@! TD.AperFunction*
M02*
